<svg width="864" height="777" xmlns="http://www.w3.org/2000/svg" xmlns:xlink="http://www.w3.org/1999/xlink"><svg width="64" height="64" viewBox="-4 -4 64 64" id="icon_arrow" x="628" y="704.05" xmlns="http://www.w3.org/2000/svg"><path data-name="사각형 411" d="M0 0h56v56H0z" fill="red" opacity=".001"/><path data-name="패스 12660" d="M34.924 14l8.96 11.5H5.5L.776 30.224v.276h53.341L41.263 14z" fill="#121212"/></svg><svg width="32" height="32" viewBox="-4 -4 32 32" id="icon_arrow_left" x="504" y="252" xmlns="http://www.w3.org/2000/svg"><path data-name="패스 12661" d="M14.793 21.207L6.086 12.5l8.707-8.707 1.414 1.414L8.914 12.5l7.293 7.293z" fill="#121212"/></svg><svg width="32" height="32" viewBox="-4 -4 32 32" id="icon_arrow_left_disable" x="504" y="188" xmlns="http://www.w3.org/2000/svg"><path data-name="패스 12661" d="M14.793 21.207L6.086 12.5l8.707-8.707 1.414 1.414L8.914 12.5l7.293 7.293z" fill="#121212" opacity=".3"/></svg><svg width="50" height="50" viewBox="-4 -4 50 50" id="icon_arrow_m" x="800" y="120" xmlns="http://www.w3.org/2000/svg"><path data-name="사각형 411" d="M0 0h42v42H0z" fill="red" opacity=".001"/><path data-name="패스 12660" d="M26.193 10.5l6.72 8.625H4.125L.582 22.668v.208h40.005L30.947 10.5z" fill="#121212"/></svg><svg width="32" height="32" viewBox="-4 -4 32 32" id="icon_arrow_right" x="504" y="284" xmlns="http://www.w3.org/2000/svg"><path data-name="패스 12661" d="M9.207 21.207l8.707-8.707-8.707-8.707-1.414 1.414 7.293 7.293-7.293 7.293z" fill="#121212"/></svg><svg width="32" height="32" viewBox="-4 -4 32 32" id="icon_arrow_right_disable" x="472" y="326" xmlns="http://www.w3.org/2000/svg"><path data-name="패스 12661" d="M9.207 21.207l8.707-8.707-8.707-8.707-1.414 1.414 7.293 7.293-7.293 7.293z" fill="#121212" opacity=".3"/></svg><svg width="72" height="72" viewBox="-4 -4 72 72" id="icon_arrow_top" x="72" y="704.05" xmlns="http://www.w3.org/2000/svg"><path data-name="사각형 149" d="M0 0h64v64H0z"/><path data-name="패스 12657" d="M32.499 26.409l-9.06 9.06 2.121 2.122 6.939-6.94 6.94 6.94 2.121-2.122z" fill="#fff"/></svg><svg width="72" height="72" viewBox="-4 -4 72 72" id="icon_automotive" x="504" y="632.05" xmlns="http://www.w3.org/2000/svg"><defs><clipPath id="aha"><path data-name="사각형 454" d="M0 0h64v64H0z" fill="#d1d1d1"/></clipPath></defs><g data-name="그룹 334" clip-path="url(#aha)"><path data-name="패스 12683" d="M14.143 23.666l-2.356-1.856 8.656-10.991h23.033l8.656 10.991-2.357 1.856-7.755-9.847H21.9z" fill="#d1d1d1"/><path data-name="패스 12684" d="M57.722 52.875h-8.913L42.4 41.454H21.522l-6.411 11.421H6.2l-2.838-19.3 3.228-4.418 2.422 1.771-2.506 3.427 2.282 15.52h4.567l6.411-11.421h24.387l6.412 11.421h4.566l2.282-15.52-2.506-3.427 2.422-1.771 3.231 4.419z" fill="#d1d1d1"/><path data-name="사각형 452" d="M16.389 46.034h31.033v3H16.389z" fill="#d1d1d1"/><g data-name="그룹 333"><g data-name="그룹 332" clip-path="url(#aha)"><path data-name="패스 12685" d="M59.592 23.569l-5.031-.008-8.731 7.15H18.089l-8.732-7.15-5.024.008-3.008 3.008c.041 0 5.587-.009 6.964-.013l8.729 7.147H46.9l8.728-7.147c1.382 0 5.966.008 5.966.008z" fill="#d1d1d1"/></g></g></g></svg><svg width="72" height="72" viewBox="-4 -4 72 72" id="icon_automotive_active" x="216" y="704.05" xmlns="http://www.w3.org/2000/svg"><defs><clipPath id="aia"><path data-name="사각형 454" d="M0 0h64v64H0z" fill="#121212"/></clipPath></defs><g data-name="그룹 334" clip-path="url(#aia)"><path data-name="패스 12683" d="M14.143 23.666l-2.356-1.856 8.656-10.991h23.033l8.656 10.991-2.357 1.856-7.755-9.847H21.9z" fill="#121212"/><path data-name="패스 12684" d="M57.722 52.875h-8.913L42.4 41.454H21.522l-6.411 11.421H6.2l-2.838-19.3 3.228-4.418 2.422 1.771-2.506 3.427 2.282 15.52h4.567l6.411-11.421h24.387l6.412 11.421h4.566l2.282-15.52-2.506-3.427 2.422-1.771 3.231 4.419z" fill="#121212"/><path data-name="사각형 452" d="M16.389 46.034h31.033v3H16.389z" fill="#121212"/><g data-name="그룹 333"><g data-name="그룹 332" clip-path="url(#aia)"><path data-name="패스 12685" d="M59.592 23.569l-5.031-.008-8.731 7.15H18.089l-8.732-7.15-5.024.008-3.008 3.008c.041 0 5.587-.009 6.964-.013l8.729 7.147H46.9l8.728-7.147c1.382 0 5.966.008 5.966.008z" fill="#121212"/></g></g></g></svg><svg width="32" height="32" viewBox="-4 -4 32 32" id="icon_btn_lang" x="764" y="528" xmlns="http://www.w3.org/2000/svg"><path data-name="패스 38" d="M12 2.6A9.4 9.4 0 112.6 12 9.411 9.411 0 0112 2.6M12 0a12 12 0 1012 12A12 12 0 0012 0" fill="#fff"/><path data-name="패스 39" d="M10.482 23.764c-.354-.245-3.46-2.655-3.46-11.77S10.128.471 10.482.225l1.479 2.139-.74-1.069L12 2.339c-.024.019-2.374 1.98-2.374 9.655s2.35 9.638 2.374 9.657z" fill="#fff"/><path data-name="패스 40" d="M13.346 23.758l-1.475-2.14s2.337-1.963 2.337-9.623-2.35-9.636-2.374-9.655L13.348.226c.354.245 3.46 2.656 3.46 11.769S13.7 23.514 13.346 23.758" fill="#fff"/><path data-name="사각형 131" d="M1.131 10.691h21.175v2.6H1.131z" fill="#fff"/></svg><svg width="32" height="32" viewBox="-4 -4 32 32" id="icon_btn_lang_black" x="512" y="440" xmlns="http://www.w3.org/2000/svg"><path data-name="패스 38" d="M12 2.6A9.4 9.4 0 112.6 12 9.411 9.411 0 0112 2.6M12 0a12 12 0 1012 12A12 12 0 0012 0" fill="#121212"/><path data-name="패스 39" d="M10.482 23.764c-.354-.245-3.46-2.655-3.46-11.77S10.128.471 10.482.225l1.479 2.139-.74-1.069L12 2.339c-.024.019-2.374 1.98-2.374 9.655s2.35 9.638 2.374 9.657z" fill="#121212"/><path data-name="패스 40" d="M13.346 23.758l-1.475-2.14s2.337-1.963 2.337-9.623-2.35-9.636-2.374-9.655L13.348.226c.354.245 3.46 2.656 3.46 11.769S13.7 23.514 13.346 23.758" fill="#121212"/><path data-name="사각형 131" d="M1.131 10.691h21.175v2.6H1.131z" fill="#121212"/></svg><svg width="32" height="32" viewBox="-4 -4 32 32" id="icon_btn_search" x="512" y="408" xmlns="http://www.w3.org/2000/svg"><path data-name="패스 12659" d="M10 20.097a10 10 0 1110-10 10.011 10.011 0 01-10 10m0-17.4a7.4 7.4 0 107.4 7.4 7.408 7.408 0 00-7.4-7.4" fill="#fff"/><path data-name="사각형 407" d="M14.58 16.517l1.84-1.84 7.386 7.386-1.84 1.84z" fill="#fff"/></svg><svg width="32" height="32" viewBox="-4 -4 32 32" id="icon_btn_search_black" x="504" y="326" xmlns="http://www.w3.org/2000/svg"><path data-name="패스 12659" d="M10 20.097a10 10 0 1110-10 10.011 10.011 0 01-10 10m0-17.4a7.4 7.4 0 107.4 7.4 7.408 7.408 0 00-7.4-7.4" fill="#121212"/><path data-name="사각형 407" d="M14.58 16.517l1.84-1.84 7.386 7.386-1.84 1.84z" fill="#121212"/></svg><svg width="32" height="32" viewBox="-4 -4 32 32" id="icon_btn_search_black_m" x="440" y="326" xmlns="http://www.w3.org/2000/svg"><g data-name="그룹 325" fill="#121212"><path data-name="패스 12682" d="M10.023 19.525a9.5 9.5 0 119.5-9.5 9.511 9.511 0 01-9.5 9.5m0-17.4a7.9 7.9 0 107.9 7.9 7.909 7.909 0 00-7.9-7.9"/><path data-name="사각형 439" d="M15.27 16.353l1.136-1.127 7.07 7.121-1.135 1.127z"/></g></svg><svg width="32" height="32" viewBox="-4 -4 32 32" id="icon_btn_search_m" x="600" y="576.05" xmlns="http://www.w3.org/2000/svg"><g data-name="그룹 325" fill="#fff"><path data-name="패스 12682" d="M10.023 19.525a9.5 9.5 0 119.5-9.5 9.511 9.511 0 01-9.5 9.5m0-17.4a7.9 7.9 0 107.9 7.9 7.909 7.909 0 00-7.9-7.9"/><path data-name="사각형 439" d="M15.27 16.353l1.136-1.127 7.07 7.121-1.135 1.127z"/></g></svg><svg width="48" height="48" viewBox="-4 -4 48 48" id="icon_car" x="800" y="522" xmlns="http://www.w3.org/2000/svg"><defs><clipPath id="apa"><path data-name="사각형 454" d="M0 0h40v40H0z" fill="#121212"/></clipPath></defs><g data-name="그룹 334" clip-path="url(#apa)"><path data-name="패스 12683" d="M8.84 14.791l-1.472-1.16 5.41-6.869h14.4l5.402 6.869-1.473 1.16-4.847-6.154H13.687z" fill="#121212"/><path data-name="패스 12684" d="M36.076 33.047h-5.571l-4.007-7.138H13.451L9.44 33.047H3.873L2.099 20.985l2.019-2.762 1.514 1.107-1.566 2.142 1.426 9.7h2.854l4.007-7.138h15.242l4.007 7.138h2.854l1.426-9.7-1.566-2.142 1.514-1.107 2.019 2.762z" fill="#121212"/><path data-name="사각형 452" d="M10.243 28.771h19.396v1.875H10.243z" fill="#121212"/><g data-name="그룹 333"><g data-name="그룹 332" clip-path="url(#apa)"><path data-name="패스 12685" d="M37.245 14.731h-3.144l-5.457 4.464H11.303l-5.455-4.469h-3.14l-1.88 1.88 4.352-.008 5.456 4.467h18.677l5.455-4.467c.864 0 3.729.005 3.729.005z" fill="#121212"/></g></g></g></svg><svg width="18" height="32" viewBox="-4 -4 18 32" id="icon_carousel_dash" x="841" y="714" xmlns="http://www.w3.org/2000/svg"><path data-name="사각형 416" d="M.634 17.563l7-12.126 1.733 1-7 12.126z" fill="#121212" opacity=".4"/></svg><svg width="26" height="26" viewBox="-4 -4 26 26" id="icon_check" x="536" y="220" xmlns="http://www.w3.org/2000/svg"><path data-name="패스 248856" d="M14.775 4l-7.514 7.905-4.037-4.246-1.449 1.378 5.486 5.771 8.964-9.43z" fill="#d1d1d1"/></svg><svg width="26" height="26" viewBox="-4 -4 26 26" id="icon_check_active" x="536" y="252" xmlns="http://www.w3.org/2000/svg"><path data-name="패스 248856" d="M14.775 4l-7.514 7.905-4.037-4.246-1.449 1.378 5.486 5.771 8.964-9.43z" fill="#121212"/></svg><svg width="22" height="22" viewBox="-4 -4 22 22" id="icon_check_active_m" x="800" y="754" xmlns="http://www.w3.org/2000/svg"><path data-name="패스 248856" d="M11.492 3.111L5.647 9.259l-3.14-3.3-1.126 1.07 4.266 4.488 6.972-7.334z" fill="#121212"/></svg><svg width="22" height="22" viewBox="-4 -4 22 22" id="icon_check_m" x="822" y="754" xmlns="http://www.w3.org/2000/svg"><path data-name="패스 248856" d="M11.492 3.111L5.647 9.259l-3.14-3.3-1.126 1.07 4.266 4.488 6.972-7.334z" fill="#d1d1d1"/></svg><svg width="32" height="32" viewBox="-4 -4 32 32" id="icon_close" x="512" y="472" xmlns="http://www.w3.org/2000/svg"><g data-name="마스크 그룹 52" transform="translate(-1792 -33)" clip-path="url(#4ffrh7so2a)"><g data-name="그룹 83"><g data-name="그룹 161" fill="#fff"><path data-name="사각형 239" d="M1795.018 33.882l19.8 19.799-1.836 1.836-19.8-19.8z"/><path data-name="사각형 240" d="M1793.183 53.68l19.799-19.798 1.836 1.835-19.8 19.8z"/></g></g></g></svg><svg width="32" height="32" viewBox="-4 -4 32 32" id="icon_close_m" x="408" y="326" xmlns="http://www.w3.org/2000/svg"><g data-name="마스크 그룹 52"><g data-name="그룹 83"><g data-name="그룹 161" fill="#121212" clip-path="url(#4w1qookhqa)"><path data-name="사각형 239" d="M4.301 2.47l16.97 16.97L20 20.714 3.029 3.743z"/><path data-name="사각형 240" d="M2.728 19.44l16.97-16.97 1.273 1.272-16.97 16.97z"/></g></g></g></svg><svg width="32" height="32" viewBox="-4 -4 32 32" id="icon_close_popup" x="504" y="220" xmlns="http://www.w3.org/2000/svg"><defs><clipPath id="axa"><path transform="translate(1793 33)" d="M0 0h24v24H0z" fill="#121212"/></clipPath></defs><g data-name="마스크 그룹 52" transform="translate(-1793 -33)" clip-path="url(#axa)"><g data-name="그룹 83"><g data-name="그룹 161" fill="#121212"><path data-name="사각형 239" d="M1797.09 35.88l16.97 16.97-1.413 1.415-16.97-16.97z"/><path data-name="사각형 240" d="M1795.879 52.85l16.97-16.97 1.415 1.415-16.971 16.97z"/></g></g></g></svg><svg width="56" height="56" viewBox="-4 -4 56 56" id="icon_close_thumb" x="800" y="64" xmlns="http://www.w3.org/2000/svg"><defs><clipPath id="aya"><path d="M0 0h47.999v47.999H0z" fill="#fff"/></clipPath></defs><g data-name="마스크 그룹 52"><g data-name="그룹 83"><g data-name="그룹 161" fill="#fff" clip-path="url(#aya)"><path data-name="사각형 239" d="M8.182 5.758l33.94 33.94-2.828 2.83L5.354 8.586z"/><path data-name="사각형 240" d="M5.759 39.699l33.94-33.94 2.829 2.828-33.94 33.94z"/></g></g></g></svg><svg width="32" height="32" viewBox="-4 -4 32 32" id="icon_close_video" x="764" y="496" xmlns="http://www.w3.org/2000/svg"><g data-name="마스크 그룹 52"><g data-name="그룹 83"><g data-name="그룹 161" fill="#fff" clip-path="url(#4w1qookhqa)"><path data-name="사각형 239" d="M4.301 2.47l16.97 16.97L20 20.714 3.029 3.743z"/><path data-name="사각형 240" d="M2.728 19.44l16.97-16.97 1.273 1.272-16.97 16.97z"/></g></g></g></svg><svg width="20" height="20" viewBox="-4 -4 20 20" id="icon_delete_filter" x="780" y="428" xmlns="http://www.w3.org/2000/svg"><defs><clipPath id="baa"><path d="M0 0h11.52v11.52H0z" fill="#999"/></clipPath></defs><g data-name="그룹 52" transform="translate(.24 .24)" clip-path="url(#baa)"><g data-name="그룹 83"><g data-name="그룹 161" fill="#999"><path data-name="패스 207143" d="M2.232.958l8.065 8.566-1.008 1.037-8.066-8.566z"/><path data-name="패스 207144" d="M1.223 9.524L9.288.958l1.009 1.037-8.066 8.566z"/></g></g></g></svg><svg width="24" height="24" viewBox="-4 -4 24 24" id="icon_download" x="756" y="608" xmlns="http://www.w3.org/2000/svg"><defs><style>.bbcls-1{fill:red;stroke:#707070;opacity:0}.bbcls-2,.bbcls-4{fill:none}.bbcls-2{stroke:#121212;stroke-width:1.4px}.bbcls-3{stroke:none}</style></defs><g id="bbic_download_16" transform="translate(-2778 -5230)"><g id="bb사각형_20368" data-name="사각형 20368" class="bbcls-1"><path class="bbcls-3" d="M0 0h16v16H0z" transform="translate(2778 5230)"/><path class="bbcls-4" d="M.5.5h15v15H.5z" transform="translate(2778 5230)"/></g><g id="bb그룹_60212" data-name="그룹 60212" transform="translate(2778.889 5230.889)"><g id="bb사각형_20369" data-name="사각형 20369" class="bbcls-1"><path class="bbcls-3" d="M0 0h14.222v14.222H0z"/><path class="bbcls-4" d="M.5.5h13.222v13.222H.5z"/></g><path id="bb패스_207124" data-name="패스 207124" class="bbcls-2" d="M2794 5239.982v-8.3" transform="translate(-2786.889 -5230.5)"/><path id="bb패스_207125" data-name="패스 207125" class="bbcls-2" d="M2786.45 5240.686l4.444 4.444 4.445-4.444" transform="translate(-2783.782 -5235.352)"/><path id="bb패스_207126" data-name="패스 207126" class="bbcls-2" d="M2786.45 5254.846h11.85" transform="translate(-2785.265 -5241.809)"/></g></g></svg><svg width="128" height="128" viewBox="-4 -4 128 128" id="icon_error_internal_server" x="256" y="504.05" xmlns="http://www.w3.org/2000/svg"><g data-name="그룹 60168"><path data-name="사각형 20723" d="M46.764 94.871h4.8v24.973h-4.8z" fill="#0f0f0f"/><path data-name="사각형 20724" d="M66.889 94.871h4.8v24.973h-4.8z" fill="#0f0f0f"/><path data-name="패스 12765" d="M28.3 119.747l57.4.2 4.785-4.777-57.4-.2z" fill="#0f0f0f"/><path data-name="패스 12766" d="M0 18.127v79.1h105.6L120 82.841h-6.787l-9.6 9.585H4.8V22.919h110.4v47.94h4.8V18.127z" fill="#040405"/><path data-name="사각형 20725" d="M58.458 41.503h4.794v20.743h-4.794z" fill="#0f0f0f"/><path data-name="사각형 20726" d="M58.458 67.837h4.794v4.743h-4.794z" fill="#0f0f0f"/></g></svg><svg width="128" height="128" viewBox="-4 -4 128 128" id="icon_error_request" x="128" y="504.05" xmlns="http://www.w3.org/2000/svg"><g data-name="그룹 60166"><path data-name="사각형 20719" d="M46.764 94.871h4.8v24.973h-4.8z" fill="#0f0f0f"/><path data-name="사각형 20720" d="M66.889 94.871h4.8v24.973h-4.8z" fill="#0f0f0f"/><path data-name="패스 12763" d="M28.3 119.747l57.4.2 4.785-4.777-57.4-.2z" fill="#0f0f0f"/><path data-name="패스 12764" d="M0 18.127v79.1h105.6L120 82.841h-6.787l-9.6 9.585H4.8V22.919h110.4v47.94h4.8V18.127z" fill="#040405"/><path data-name="사각형 20721" d="M44.247 66.103l24.668-24.668 3.39 3.39-24.668 24.668z" fill="#0f0f0f"/><path data-name="사각형 20722" d="M44.247 44.826l3.39-3.39 24.667 24.667-3.39 3.39z" fill="#0f0f0f"/></g></svg><svg width="48" height="48" viewBox="-4 -4 48 48" id="icon_facebook" x="800" y="666" xmlns="http://www.w3.org/2000/svg"><path data-name="패스 30" d="M25.935 7.171v4.423h-2.407a1.473 1.473 0 00-1.4.585 2.715 2.715 0 00-.228 1.333v2.017H26l-.489 4.454H21.9v12.845h-5.3V19.983H14v-4.454h2.6v-2.667c0-2.733.945-4.491 2.8-5.236a6.5 6.5 0 012.5-.455z" fill="#888"/></svg><svg width="48" height="48" viewBox="-4 -4 48 48" id="icon_facebook_hover" x="800" y="618" xmlns="http://www.w3.org/2000/svg"><path data-name="패스 30" d="M25.935 7.171v4.423h-2.407a1.473 1.473 0 00-1.4.585 2.715 2.715 0 00-.228 1.333v2.017H26l-.489 4.454H21.9v12.845h-5.3V19.983H14v-4.454h2.6v-2.667c0-2.733.945-4.491 2.8-5.236a6.5 6.5 0 012.5-.455z" fill="#fff"/></svg><svg width="72" height="72" viewBox="-4 -4 72 72" id="icon_function_anti_rust" y="632.05" xmlns="http://www.w3.org/2000/svg"><defs><clipPath id="bga"><path data-name="사각형 20783" d="M0 0h64v64H0z" fill="none"/></clipPath></defs><g data-name="그룹 60586"><g data-name="그룹 60585"><g data-name="그룹 60584" clip-path="url(#bga)" fill="#121212"><path data-name="패스 248890" d="M32 60.979l-.33-.07-.087-.019C5.649 55.358 5.7 32.1 5.7 31.869V11.876l26.38-9.039 26.22 9.044V31.9c0 .2.046 23.46-25.883 28.991zM9.7 14.733V31.9c-.008.843.059 20.008 22.3 24.988 22.237-4.979 22.308-24.146 22.3-24.964V14.733L32.075 7.066z"/><path data-name="사각형 20781" d="M30 4.951h4v54.478h-4z"/></g></g></g></svg><svg width="72" height="72" viewBox="-4 -4 72 72" id="icon_function_cleaning" x="72" y="632.05" xmlns="http://www.w3.org/2000/svg"><g data-name="그룹 60411" fill="#121212"><path data-name="합치기 44" d="M30.001 61.721v-11h4v11zm0-48.721V2h4v11z"/><path data-name="합치기 43" d="M50.725 34.001v-4h11v4zm-48.724 0v-4h11v4z"/><path data-name="합치기 45" d="M52.375 55.2l-7.778-7.779 2.829-2.828 7.778 7.778zM16.781 19.605l-7.778-7.778L11.831 9l7.779 7.778z"/><path data-name="합치기 46" d="M47.425 19.607l-2.828-2.828 7.778-7.778 2.828 2.828zM11.83 55.203l-2.828-2.828 7.778-7.778 2.829 2.828z"/></g></svg><svg width="72" height="72" viewBox="-4 -4 72 72" id="icon_function_cooling" x="144" y="632.05" xmlns="http://www.w3.org/2000/svg"><defs><clipPath id="bia"><path data-name="사각형 20778" d="M0 0h64v64H0z" fill="none"/></clipPath></defs><g data-name="그룹 60580" clip-path="url(#bia)" fill="#121212"><path data-name="사각형 20775" d="M29.999 4h4v56h-4z"/><path data-name="사각형 20776" d="M6.75 45.203l48.497-28 2 3.464-48.497 28z"/><path data-name="사각형 20777" d="M6.75 20.666l2-3.465 48.498 28-2 3.465z"/></g></svg><svg width="72" height="72" viewBox="-4 -4 72 72" id="icon_function_distribution" x="216" y="632.05" xmlns="http://www.w3.org/2000/svg"><defs><clipPath id="bja"><path data-name="사각형 20797" d="M0 0h64v64H0z" fill="none"/></clipPath></defs><g data-name="그룹 60600" clip-path="url(#bja)" fill="#121212"><path data-name="패스 248892" d="M11.835 23.83h-3.6V8.235h15.713v3.6H11.835z"/><path data-name="패스 248893" d="M55.919 23.83h-3.6v-12H40.2v-3.6h15.719z"/><path data-name="패스 248894" d="M55.919 55.918H40.2v-3.6h12.119V40.323h3.6z"/><path data-name="패스 248895" d="M23.948 55.917H8.235V40.323h3.6v11.994h12.113z"/><path data-name="사각형 20793" d="M8.614 52.722l14.488-14.574 2.837 2.82-14.488 14.574z"/><path data-name="사각형 20794" d="M8.618 11.446l2.835-2.822 14.499 14.563-2.835 2.822z"/><path data-name="사각형 20795" d="M38.202 23.188L52.699 8.623l2.835 2.822L41.037 26.01z"/><path data-name="사각형 20796" d="M38.182 40.944l2.835-2.822 14.5 14.561-2.834 2.823z"/></g></svg><svg width="72" height="72" viewBox="-4 -4 72 72" id="icon_function_reduce" x="288" y="632.05" xmlns="http://www.w3.org/2000/svg"><defs><clipPath id="bka"><path data-name="사각형 20771" d="M0 0h64v64H0z" fill="none"/></clipPath></defs><g data-name="ic_Lubricant_04_1"><g data-name="그룹 60574" fill="#121212" clip-path="url(#bka)"><path data-name="사각형 20770" d="M4 54.107h56v4H4z"/><path data-name="패스 248888" d="M21.862 43.717L4.55 25.483l2.9-2.754 14.542 15.316L53.817 7.469l2.771 2.885z"/><path data-name="패스 248889" d="M58 22.4h-4V10H41.6V6H58z"/></g></g></svg><svg width="72" height="72" viewBox="-4 -4 72 72" id="icon_function_sealed" x="360" y="632.05" xmlns="http://www.w3.org/2000/svg"><defs><clipPath id="bla"><path data-name="사각형 20789" d="M0 0h64v64H0z" fill="none"/></clipPath></defs><g data-name="그룹 60594" clip-path="url(#bla)"><path data-name="사각형 20787" d="M16 4.4h32v4H16z"/><g data-name="그룹 60593"><g data-name="그룹 60592" clip-path="url(#bla)"><path data-name="패스 248891" d="M12.092 59.6a5.321 5.321 0 01-4.306-8.4l12.359-17.516V13.6h4v21.354L11.05 53.508a1.321 1.321 0 001.061 2.092h39.8a1.322 1.322 0 001.046-2.086l-13.1-18.56V13.6h4v20.084L56.219 51.2a5.321 5.321 0 01-4.292 8.4z"/></g></g></g></svg><svg width="48" height="48" viewBox="-4 -4 48 48" id="icon_gasoline" x="800" y="570" xmlns="http://www.w3.org/2000/svg"><path data-name="합치기 20" d="M2 33.999v-9.2h2v7.2h32v-6.75h2v8.75zm25.362-8.117l-2.048-2.957h-2.259v2.957H20.6V15.269h4.594a5.888 5.888 0 012.449.47 3.512 3.512 0 012.161 3.381 3.46 3.46 0 01-2.184 3.352l2.381 3.411zm-4.307-4.913h2a2.552 2.552 0 001.684-.485 1.914 1.914 0 000-2.737 2.582 2.582 0 00-1.684-.479h-2zM10 25.882V15.269h4.593a5.884 5.884 0 012.449.47 3.512 3.512 0 012.161 3.381 3.685 3.685 0 01-.561 2.04 3.572 3.572 0 01-1.6 1.334 5.981 5.981 0 01-2.449.462h-2.138v2.926zm2.456-4.928h2a2.581 2.581 0 001.683-.477 1.9 1.9 0 000-2.729 2.581 2.581 0 00-1.683-.479h-2zm23.543-.378V7.999H10.59L3.999 13.39v7.186h-2v-8.134l7.878-6.443H38v14.577z" fill="#121212" stroke="transparent" stroke-miterlimit="10"/></svg><svg width="72" height="72" viewBox="-4 -4 72 72" id="icon_hydraulic" x="692" y="496" xmlns="http://www.w3.org/2000/svg"><defs><clipPath id="bna"><path data-name="사각형 462" d="M0 0h64v64H0z" fill="#d1d1d1"/></clipPath></defs><g data-name="그룹 340"><g data-name="그룹 339"><g data-name="그룹 338" clip-path="url(#bna)" fill="#d1d1d1"><path data-name="패스 12686" d="M13.44 23.68a9.6 9.6 0 119.6-9.6 9.611 9.611 0 01-9.6 9.6m0-16.2a6.6 6.6 0 106.6 6.6 6.608 6.608 0 00-6.6-6.6"/><path data-name="패스 12687" d="M52.48 20.48a7.04 7.04 0 117.04-7.04 7.048 7.048 0 01-7.04 7.04m0-11.08a4.04 4.04 0 104.04 4.04 4.044 4.044 0 00-4.04-4.04"/><path data-name="패스 12688" d="M29.111 20.04H20.52v-3h7.911l2.669-1.273h17.754v3H31.775z"/><path data-name="패스 12689" d="M49.168 10.443H31.1L28.432 9.17h-9.915v-3h10.595l2.666 1.273h17.39z"/><path data-name="사각형 457" d="M6.586 20.604l2.948-.555 5.643 29.977-2.949.555z"/><path data-name="패스 12690" d="M60.3 36.04h-15v-10h15zm-12-3h9v-4h-9z"/><path data-name="사각형 458" d="M51.3 40.506h3v4.71h-3z"/><path data-name="사각형 459" d="M47.749 22.355h3v4.439h-3z"/><path data-name="사각형 460" d="M54.789 22.355h3v4.961h-3z"/><path data-name="패스 12691" d="M31.884 60.22H3.84v-11h32v7.044zm-25.044-3h23.8l2.2-2.2v-2.8h-26z"/><path data-name="패스 12692" d="M26.485 45.917l-5.053-26-2.945.572 4.941 25.431z"/><path data-name="패스 12693" d="M52.8 42.143l-5-1.882V33.04h10v7.221zm-2-3.958l2 .753 2-.753V36.04h-4z"/></g></g></g></svg><svg width="72" height="72" viewBox="-4 -4 72 72" id="icon_hydraulic_active" x="576" y="632.05" xmlns="http://www.w3.org/2000/svg"><defs><clipPath id="boa"><path data-name="사각형 462" d="M0 0h64v64H0z" fill="none"/></clipPath></defs><g data-name="그룹 340"><g data-name="그룹 339"><g data-name="그룹 338" clip-path="url(#boa)"><path data-name="패스 12686" d="M13.44 23.68a9.6 9.6 0 119.6-9.6 9.611 9.611 0 01-9.6 9.6m0-16.2a6.6 6.6 0 106.6 6.6 6.608 6.608 0 00-6.6-6.6"/><path data-name="패스 12687" d="M52.48 20.48a7.04 7.04 0 117.04-7.04 7.048 7.048 0 01-7.04 7.04m0-11.08a4.04 4.04 0 104.04 4.04 4.044 4.044 0 00-4.04-4.04"/><path data-name="패스 12688" d="M29.111 20.04H20.52v-3h7.911l2.669-1.273h17.754v3H31.775z"/><path data-name="패스 12689" d="M49.168 10.443H31.1L28.432 9.17h-9.915v-3h10.595l2.666 1.273h17.39z"/><path data-name="사각형 457" d="M6.586 20.606l2.949-.555 5.643 29.985-2.949.555z"/><path data-name="패스 12690" d="M60.3 36.04h-15v-10h15zm-12-3h9v-4h-9z"/><path data-name="사각형 458" d="M51.3 40.506h3v4.71h-3z"/><path data-name="사각형 459" d="M47.749 22.355h3v4.439h-3z"/><path data-name="사각형 460" d="M54.789 22.355h3v4.961h-3z"/><path data-name="패스 12691" d="M31.884 60.22H3.84v-11h32v7.044zm-25.044-3h23.8l2.2-2.2v-2.8h-26z"/><path data-name="패스 12692" d="M26.485 45.917l-5.053-26-2.945.572 4.941 25.431z"/><path data-name="패스 12693" d="M52.8 42.143l-5-1.882V33.04h10v7.221zm-2-3.958l2 .753 2-.753V36.04h-4z"/></g></g></g></svg><svg width="72" height="72" viewBox="-4 -4 72 72" id="icon_industrial" x="648" y="632.05" xmlns="http://www.w3.org/2000/svg"><defs><clipPath id="bpa"><path data-name="사각형 468" d="M0 0h64v64H0z" fill="#d1d1d1"/></clipPath></defs><g data-name="그룹 346" clip-path="url(#bpa)" fill="#d1d1d1"><path data-name="패스 12694" d="M61.2 59.936h-3V6.181h-8.434v53.754h-3V3.181H61.2z"/><path data-name="사각형 466" d="M48.599 16.339h10.907v3H48.599z"/><path data-name="사각형 467" d="M48.599 23.379h10.907v3H48.599z"/><path data-name="패스 12695" d="M14.618 30.617v.106l-3 .893v5.4h3v-6.4z"/><path data-name="패스 12696" d="M20.58 31.62v5.4h3v-6.294z"/><path data-name="패스 12697" d="M29.54 31.626v5.391h3v-6.285z"/><path data-name="패스 12698" d="M38.5 31.625v5.392h3v-6.286z"/><path data-name="패스 12699" d="M14.618 42.78v.106l-3 .893v5.4h3v-6.4z"/><path data-name="패스 12700" d="M20.58 43.783v5.4h3v-6.294z"/><path data-name="패스 12701" d="M29.54 43.789v5.391h3v-6.285z"/><path data-name="패스 12702" d="M38.5 43.788v5.392h3v-6.285z"/><path data-name="패스 12703" d="M42.223 57.512v-.019H5.74V27.5L48.7 14.7l-.856-2.875L2.74 25.266v35.227h36.5z"/></g></svg><svg width="72" height="72" viewBox="-4 -4 72 72" id="icon_industrial_active" x="720" y="632.05" xmlns="http://www.w3.org/2000/svg"><defs><clipPath id="bqa"><path data-name="사각형 468" d="M0 0h64v64H0z" fill="none"/></clipPath></defs><g data-name="그룹 346" clip-path="url(#bqa)"><path data-name="패스 12694" d="M61.2 59.936h-3V6.181h-8.434v53.754h-3V3.181H61.2z"/><path data-name="사각형 466" d="M48.599 16.339h10.907v3H48.599z"/><path data-name="사각형 467" d="M48.599 23.379h10.907v3H48.599z"/><path data-name="패스 12695" d="M14.618 30.617v.106l-3 .893v5.4h3v-6.4z"/><path data-name="패스 12696" d="M20.58 31.62v5.4h3v-6.294z"/><path data-name="패스 12697" d="M29.54 31.626v5.391h3v-6.285z"/><path data-name="패스 12698" d="M38.5 31.625v5.392h3v-6.286z"/><path data-name="패스 12699" d="M14.618 42.78v.106l-3 .893v5.4h3v-6.4z"/><path data-name="패스 12700" d="M20.58 43.783v5.4h3v-6.294z"/><path data-name="패스 12701" d="M29.54 43.789v5.391h3v-6.285z"/><path data-name="패스 12702" d="M38.5 43.788v5.392h3v-6.285z"/><path data-name="패스 12703" d="M42.223 57.512v-.019H5.74V27.5L48.7 14.7l-.856-2.875L2.74 25.266v35.227h36.5z"/></g></svg><svg viewBox="-4 -4 30 30" width="30" height="30" id="icon_input" x="662" y="576.05" xmlns="http://www.w3.org/2000/svg"><path data-name="패스 249129" d="M10 21a10 10 0 1110-10 10.011 10.011 0 01-10 10m0-18a8 8 0 108 8 8.009 8.009 0 00-8-8" fill="#121212"/></svg><svg width="30" height="30" viewBox="-4 -4 30 30" id="icon_input_checked" x="632" y="576.05" xmlns="http://www.w3.org/2000/svg"><g data-name="타원 100" fill="#121212" stroke-width="0"><circle cx="10" cy="11" r="10"/><circle cx="10" cy="10" r="9" fill="none"/></g><path data-name="패스 249130" d="M14.702 6.287l-6.178 6.279-3.217-3.315-1.578 1.536 4.784 4.928L16.27 7.83z" fill="#fff"/></svg><svg width="48" height="48" viewBox="-4 -4 48 48" id="icon_ins" x="800" y="330" xmlns="http://www.w3.org/2000/svg"><path data-name="패스 12655" d="M20 15.3a4.7 4.7 0 104.7 4.7 4.7 4.7 0 00-4.7-4.7" fill="#888"/><path data-name="패스 12656" d="M25 7H15a8 8 0 00-8 8v10a8 8 0 008 8h10a8 8 0 008-8V15a8 8 0 00-8-8m-5 19.5a6.5 6.5 0 116.5-6.5 6.508 6.508 0 01-6.5 6.5m7.1-11.3a1.1 1.1 0 111.1-1.1 1.1 1.1 0 01-1.1 1.1" fill="#888"/></svg><svg width="48" height="48" viewBox="-4 -4 48 48" id="icon_ins_hover" x="800" y="282" xmlns="http://www.w3.org/2000/svg"><defs><clipPath id="bua"><path data-name="사각형 404" d="M0 0h26v26H0z" fill="#fff"/></clipPath></defs><g data-name="그룹 311" transform="translate(7 7)" clip-path="url(#bua)" fill="#fff"><path data-name="패스 12655" d="M13 8.3a4.7 4.7 0 104.7 4.7A4.7 4.7 0 0013 8.3"/><path data-name="패스 12656" d="M18 0H8a8 8 0 00-8 8v10a8 8 0 008 8h10a8 8 0 008-8V8a8 8 0 00-8-8m-5 19.5a6.5 6.5 0 116.5-6.5 6.508 6.508 0 01-6.5 6.5m7.1-11.3a1.1 1.1 0 111.1-1.1 1.1 1.1 0 01-1.1 1.1"/></g></svg><svg id="icon_lineup_automotive" width="188" height="188" viewBox="-4 -4 188 188" x="188" xmlns="http://www.w3.org/2000/svg"><defs><clipPath id="bvclip-path"><path id="bv사각형_454" data-name="사각형 454" class="bvcls-1" d="M0 0h180v180H0z"/></clipPath><style>.bvcls-1{fill:#fff}.bvcls-2{clip-path:url(#bvclip-path)}</style></defs><g id="bv그룹_334" data-name="그룹 334" class="bvcls-2"><path id="bv패스_12683" data-name="패스 12683" class="bvcls-1" d="M18.414 46.951l-6.626-5.22 24.344-30.912h64.78l24.345 30.912-6.629 5.22-21.81-27.695H40.227z" transform="translate(21.364 19.609)"/><path id="bv패스_12684" data-name="패스 12684" class="bvcls-1" d="M156.255 95.864h-25.068l-18.034-32.122H54.442L36.411 95.864h-25.07L3.359 41.586l9.087-12.428 6.812 4.981-7.048 9.637 6.418 43.65h12.845L49.5 55.3h68.588l18.034 32.122h12.842l6.418-43.65-7.048-9.638 6.812-4.981 9.087 12.428z" transform="translate(6.088 52.847)"/><path id="bv사각형_452" data-name="사각형 452" class="bvcls-1" transform="translate(46.094 129.471)" d="M0 0h87.28v8.438H0z"/><g id="bv그룹_333" data-name="그룹 333"><g id="bv그룹_332" data-name="그룹 332" class="bvcls-2"><path id="bv패스_12685" data-name="패스 12685" class="bvcls-1" d="M165.2 23.584l-14.15-.022L126.5 43.67H48.474L23.915 23.561l-14.13.022-8.46 8.46c.115 0 15.713-.025 19.586-.037l24.55 20.1h84.046l24.548-20.1c3.887.011 16.779.023 16.779.023z" transform="translate(2.402 42.704)"/></g></g></g></svg><svg width="188" height="188" viewBox="-4 -4 188 188" id="icon_lineup_hydraulic" xmlns="http://www.w3.org/2000/svg"><defs><clipPath id="bwclip-path"><path id="bw사각형_462" data-name="사각형 462" class="bwcls-1" d="M0 0h180v180H0z"/></clipPath><style>.bwcls-1{fill:#fff}.bwcls-2{clip-path:url(#bwclip-path)}</style></defs><g id="bwic_LineUp_wh_180_02" transform="translate(-112 -84)"><g id="bw그룹_340" data-name="그룹 340" class="bwcls-2" transform="translate(112 84)"><g id="bw그룹_339" data-name="그룹 339"><g id="bw그룹_338" data-name="그룹 338" class="bwcls-2"><path id="bw패스_12686" data-name="패스 12686" class="bwcls-1" d="M30.84 58.48a27 27 0 1127-27 27.03 27.03 0 01-27 27m0-45.563A18.563 18.563 0 1049.4 31.48a18.584 18.584 0 00-18.56-18.563" transform="translate(6.96 8.12)"/><path id="bw패스_12687" data-name="패스 12687" class="bwcls-1" d="M65.24 46a19.8 19.8 0 1119.8-19.8A19.822 19.822 0 0165.24 46m0-31.162A11.362 11.362 0 1076.6 26.2a11.374 11.374 0 00-11.36-11.362" transform="translate(82.36 11.6)"/><path id="bw패스_12688" data-name="패스 12688" class="bwcls-1" d="M44.682 27.785H20.52v-8.438h22.25l7.5-3.58h49.947V24.2h-48.04z" transform="translate(37.192 28.578)"/><path id="bw패스_12689" data-name="패스 12689" class="bwcls-1" d="M104.723 18.188H53.9l-7.5-3.58H18.517V6.17h29.8l7.5 3.58h48.909z" transform="translate(33.562 11.183)"/><path id="bw사각형_457" data-name="사각형 457" class="bwcls-1" transform="rotate(-10.66 319.822 -70.291)" d="M0 0h8.437v85.793H0z"/><path id="bw패스_12690" data-name="패스 12690" class="bwcls-1" d="M87.488 54.165H45.3V26.04h42.188zm-33.75-8.437H79.05v-11.25H53.737z" transform="translate(82.106 47.197)"/><path id="bw사각형_458" data-name="사각형 458" class="bwcls-1" transform="translate(144.281 113.923)" d="M0 0h8.438v13.247H0z"/><path id="bw사각형_459" data-name="사각형 459" class="bwcls-1" transform="translate(134.294 62.873)" d="M0 0h8.438v12.485H0z"/><path id="bw사각형_460" data-name="사각형 460" class="bwcls-1" transform="translate(154.094 62.873)" d="M0 0h8.438v13.953H0z"/><path id="bw패스_12691" data-name="패스 12691" class="bwcls-1" d="M82.714 80.158H3.84V49.22h90v19.811zM12.278 71.72h66.943l6.179-6.182v-7.88H12.278z" transform="translate(6.96 89.211)"/><path id="bw패스_12692" data-name="패스 12692" class="bwcls-1" d="M40.981 93.048L26.77 19.914l-8.283 1.609 13.9 71.525z" transform="translate(33.508 36.094)"/><path id="bw패스_12693" data-name="패스 12693" class="bwcls-1" d="M61.862 58.642L47.8 53.349V33.04h28.125v20.309zM56.237 47.51l5.625 2.118 5.625-2.118v-6.032h-11.25z" transform="translate(86.637 59.885)"/></g></g></g></g></svg><svg width="188" height="188" viewBox="-4 -4 188 188" id="icon_lineup_industrial" y="188" xmlns="http://www.w3.org/2000/svg"><defs><clipPath id="bxclip-path"><path id="bx사각형_20513" data-name="사각형 20513" class="bxcls-1" d="M0 0h180v180H0z"/></clipPath><style>.bxcls-1{fill:#fff}</style></defs><g id="bxic_LineUp_wh_180_03" transform="translate(-112 -84)"><g id="bx그룹_60382" data-name="그룹 60382" transform="translate(112 84)" clip-path="url(#bxclip-path)"><g id="bx그룹_60383" data-name="그룹 60383" transform="translate(3.293 3.606)"><path id="bx패스_248838" data-name="패스 248838" class="bxcls-1" d="M87.367 156.508h-8.438V11.286H55.2v145.22h-8.434V3.181h40.6z" transform="translate(78.34 5.766)"/><path id="bx사각형_20511" data-name="사각형 20511" class="bxcls-1" transform="translate(130.262 44.428)" d="M0 0h30.676v8.438H0z"/><path id="bx사각형_20512" data-name="사각형 20512" class="bxcls-1" transform="translate(130.262 63.412)" d="M0 0h30.676v8.438H0z"/><path id="bx패스_248839" data-name="패스 248839" class="bxcls-1" d="M20.052 30.617v.3l-8.432 2.51v15.19h8.437v-18z" transform="translate(20.033 52.101)"/><path id="bx패스_248840" data-name="패스 248840" class="bxcls-1" d="M20.58 33.24v15.18h8.437V30.726z" transform="translate(35.236 52.292)"/><path id="bx패스_248841" data-name="패스 248841" class="bxcls-1" d="M29.54 33.246v15.162h8.438V30.732z" transform="translate(50.438 52.302)"/><path id="bx패스_248842" data-name="패스 248842" class="bxcls-1" d="M38.5 33.246v15.165h8.438v-17.68z" transform="translate(65.64 52.301)"/><path id="bx패스_248843" data-name="패스 248843" class="bxcls-1" d="M20.052 42.78v.3l-8.432 2.51v15.19h8.437v-18z" transform="translate(20.033 72.642)"/><path id="bx패스_248844" data-name="패스 248844" class="bxcls-1" d="M20.58 45.4v15.183h8.437V42.889z" transform="translate(35.236 72.836)"/><path id="bx패스_248845" data-name="패스 248845" class="bxcls-1" d="M29.54 45.409v15.162h8.438V42.895z" transform="translate(50.438 72.847)"/><path id="bx패스_248846" data-name="패스 248846" class="bxcls-1" d="M38.5 45.409v15.165h8.438v-17.68z" transform="translate(65.64 72.846)"/><path id="bx패스_248847" data-name="패스 248847" class="bxcls-1" d="M113.786 140.316v-.053H11.178V55.916L128.207 21.15l-2.407-8.086L2.74 49.624V148.7H105.4z" transform="translate(4.967 15.14)"/></g></g></g></svg><svg width="188" height="188" viewBox="-4 -4 188 188" id="icon_lineup_marine" x="188" y="188" xmlns="http://www.w3.org/2000/svg"><defs><clipPath id="byclip-path"><path id="by사각형_476" data-name="사각형 476" class="bycls-1" d="M0 0h180v179.999H0z"/></clipPath><clipPath id="byclip-path-2"><path id="by사각형_475" data-name="사각형 475" class="bycls-1" d="M0 0h170v170H0z"/></clipPath><style>.bycls-1{fill:#fff}</style></defs><g id="byic_LineUp_wh_180_04" transform="translate(-122 -60)"><g id="by그룹_352" data-name="그룹 352" transform="translate(122 60)" clip-path="url(#byclip-path)"><g id="by그룹_351" data-name="그룹 351" transform="translate(5 5)"><g id="by그룹_350" data-name="그룹 350" clip-path="url(#byclip-path-2)"><path id="by패스_12704" data-name="패스 12704" class="bycls-1" d="M23.789 116.331l-7.772-1.75a3.188 3.188 0 00-.085.821c-.21-3.288-7.724-36.221-12.413-56.209l-.8-3.413 77.688-29.05 77.817 29.028-13.239 60.549-7.788-1.7 11.767-53.8-68.552-25.572-68.334 25.551c12.341 52.756 11.95 54.5 11.711 55.545" transform="translate(4.5 44.272)"/><path id="by사각형_471" data-name="사각형 471" class="bycls-1" transform="translate(81.016 75.358)" d="M0 0h7.969v83.805H0z"/><path id="by사각형_472" data-name="사각형 472" class="bycls-1" transform="translate(63.612 96.589)" d="M0 0h7.969v14.875H0z"/><path id="by사각형_473" data-name="사각형 473" class="bycls-1" transform="translate(98.422 96.589)" d="M0 0h7.969v14.875H0z"/><path id="by패스_12705" data-name="패스 12705" class="bycls-1" d="M60.555 38.308h-7.969V9.23H33.355v29.078h-7.969V1.261h35.169z" transform="translate(42.046 2.089)"/><path id="by사각형_474" data-name="사각형 474" class="bycls-1" transform="translate(71.416 14.5)" d="M0 0h26.695v7.969H0z"/><path id="by패스_12706" data-name="패스 12706" class="bycls-1" d="M11.3 13.706v46.017l7.969-2.967V21.675H113.3v35.1l7.926 2.951h.043v-46.02z" transform="translate(18.715 22.701)"/><path id="by패스_12707" data-name="패스 12707" class="bycls-1" d="M7.966 58.633L0 66.6h162.068L170 58.667v-.035z" transform="translate(-.001 97.111)"/></g></g></g></g></svg><svg id="icon_lineup_specialty" width="188" height="188" viewBox="-4 -4 188 188" x="376" xmlns="http://www.w3.org/2000/svg"><defs><clipPath id="bzclip-path"><path id="bz사각형_480" data-name="사각형 480" class="bzcls-1" d="M0 0h180v180H0z"/></clipPath><style>.bzcls-1{fill:#fff}.bzcls-2{clip-path:url(#bzclip-path)}</style></defs><g id="bz그룹_358" data-name="그룹 358" class="bzcls-2"><g id="bz그룹_357" data-name="그룹 357"><g id="bz그룹_356" data-name="그룹 356" class="bzcls-2"><path id="bz패스_12708" data-name="패스 12708" class="bzcls-1" d="M11.366 36.863l-.1-.045-.129.6c.082-.188.149-.371.231-.56" transform="translate(20.182 66.732)"/><path id="bz패스_12709" data-name="패스 12709" class="bzcls-1" d="M143.987 14.774C133.179 3.977 114.563 2.9 92.912 11.829l9.394 5.535c15.427-4.975 28.5-3.828 35.716 3.378 15.488 15.486 1.69 55.451-30.125 87.269-16.009 16.014-34.18 27.855-51.168 33.342-16.023 5.178-28.848 4.036-36.1-3.218-7.8-7.8-8.4-22.168-1.839-39.876l-5.543-8.536-.113-.051c-10.167 23.453-9.608 43.293 1.53 54.427 5.884 5.889 14.122 8.873 24.033 8.873a67.712 67.712 0 0020.624-3.592c18.236-5.892 37.609-18.467 54.543-35.407 36.262-36.259 49.492-79.836 30.125-99.2" transform="translate(10.675 10.563)"/><path id="bz패스_12710" data-name="패스 12710" class="bzcls-1" d="M55.163 18.737L47 14.535A177.873 177.873 0 0028.9 30.3a173.224 173.224 0 00-14.1 15.918l4.531 7.914A164.548 164.548 0 0134.86 36.278a169.6 169.6 0 0120.4-17.407z" transform="translate(26.821 26.344)"/><path id="bz패스_12711" data-name="패스 12711" class="bzcls-1" d="M111.213 50.695a168.565 168.565 0 0114.856 16.36h.008l3.836-8.606a177.4 177.4 0 00-12.845-13.823C79.753 8.628 34.933-4.534 15.015 14.653c-5.988 5.766-9.152 14.068-9.155 24-.006 22.226 15.41 50.908 40.224 74.847a170.62 170.62 0 0018.2 15.294l8.072-4.461.048-.07a163.009 163.009 0 01-20.458-16.827C29.072 85.365 14.292 58.367 14.3 38.657c0-7.7 2.211-13.731 6.57-17.93 16.071-15.5 57.448-1.766 90.346 29.967" transform="translate(10.621 10.606)"/><path id="bz패스_12712" data-name="패스 12712" class="bzcls-1" d="M92.59 36.769L86.816 45.8C91.608 61.316 90.3 74.518 83 81.811c-7.428 7.433-20.852 8.539-37.4 3.282l-9.489 5.574c10.417 4.134 19.952 6.19 28.3 6.19 10.133 0 18.512-3.037 24.553-9.079 10.82-10.82 12.142-29.41 3.622-51.01" transform="translate(65.458 66.643)"/></g></g></g></svg><svg width="41" height="40" viewBox="-4 -4 41 40" id="icon_link" x="800" y="714" xmlns="http://www.w3.org/2000/svg"><g id="caic_link_32" transform="translate(-1009.5 -1030)"><g id="ca그룹_60415" data-name="그룹 60415" transform="translate(1010 1038)"><path id="ca합치기_41" data-name="합치기 41" d="M-7204-1252v-3h3.5a5.505 5.505 0 005.5-5.5 5.507 5.507 0 00-5.5-5.5h-3.5v-3h3.5a8.512 8.512 0 018.5 8.5 8.51 8.51 0 01-8.5 8.5zm-11.5 0a8.509 8.509 0 01-8.5-8.5 8.51 8.51 0 018.5-8.5h3.5v3h-3.5a5.506 5.506 0 00-5.5 5.5 5.5 5.5 0 005.5 5.5h3.5v3zm.843-7v-3h14v3z" transform="translate(7224 1269)" fill="#121212" stroke="transparent" stroke-miterlimit="10"/></g></g></svg><svg width="26" height="26" viewBox="-4 -4 26 26" id="icon_load_more" x="536" y="188" xmlns="http://www.w3.org/2000/svg"><path data-name="패스 12661" d="M3.839 6.839l5.162 5.162 5.161-5.162-.838-.838-4.323 4.323-4.324-4.323z" fill="#999"/></svg><svg width="16" height="46" viewBox="-4 -4 16 46" id="icon_map_pin" x="848" y="234" xmlns="http://www.w3.org/2000/svg"><g data-name="그룹 60207" transform="translate(-1386 -7490)"><circle data-name="타원 55" cx="4" cy="4" r="4" transform="translate(1386 7490)" fill="#5353ff"/><path data-name="패스 207123" d="M1390 7496v32" fill="none" stroke="#5353ff" stroke-width="2"/></g></svg><svg width="72" height="72" viewBox="-4 -4 72 72" id="icon_marine" y="704.05" xmlns="http://www.w3.org/2000/svg"><defs><clipPath id="cda"><path data-name="사각형 476" d="M0 0h64v64H0z" fill="#d1d1d1"/></clipPath></defs><g data-name="그룹 352"><g data-name="그룹 351"><g data-name="그룹 350" clip-path="url(#cda)" fill="#d1d1d1"><path data-name="패스 12704" d="M10.65 60.462L7.724 59.8a1.2 1.2 0 00-.032.309c-.079-1.238-2.908-13.636-4.673-21.161l-.3-1.285L31.965 26.73l29.3 10.928-4.988 22.795-2.932-.641 4.43-20.253-25.808-9.627-25.726 9.619c4.646 19.861 4.5 20.516 4.409 20.911"/><path data-name="사각형 471" d="M30.5 28.37h3v31.55h-3z"/><path data-name="사각형 472" d="M23.948 36.363h3v5.6h-3z"/><path data-name="사각형 473" d="M37.053 36.363h3v5.6h-3z"/><path data-name="패스 12705" d="M38.626 15.208h-3V4.261h-7.24v10.947h-3V1.261h13.24z"/><path data-name="사각형 474" d="M26.886 5.459h10.05v3h-10.05z"/><path data-name="패스 12706" d="M11.3 13.706V31.03l3-1.117V16.706h35.4v13.215l2.984 1.111h.016V13.706z"/><path data-name="패스 12707" d="M3 58.633l-3 3h61.014L64 58.646v-.013z"/></g></g></g></svg><svg width="72" height="72" viewBox="-4 -4 72 72" id="icon_marine_active" x="432" y="632.05" xmlns="http://www.w3.org/2000/svg"><defs><clipPath id="cea"><path data-name="사각형 476" d="M0 0h64v64H0z" fill="none"/></clipPath></defs><g data-name="그룹 352"><g data-name="그룹 351"><g data-name="그룹 350" clip-path="url(#cea)"><path data-name="패스 12704" d="M10.65 60.462L7.724 59.8a1.2 1.2 0 00-.032.309c-.079-1.238-2.908-13.636-4.673-21.161l-.3-1.285L31.965 26.73l29.3 10.928-4.988 22.795-2.932-.641 4.43-20.253-25.808-9.627-25.726 9.619c4.646 19.861 4.5 20.516 4.409 20.911"/><path data-name="사각형 471" d="M30.5 28.37h3v31.55h-3z"/><path data-name="사각형 472" d="M23.948 36.363h3v5.6h-3z"/><path data-name="사각형 473" d="M37.053 36.363h3v5.6h-3z"/><path data-name="패스 12705" d="M38.626 15.208h-3V4.261h-7.24v10.947h-3V1.261h13.24z"/><path data-name="사각형 474" d="M26.886 5.459h10.05v3h-10.05z"/><path data-name="패스 12706" d="M11.3 13.706V31.03l3-1.117V16.706h35.4v13.215l2.984 1.111h.016V13.706z"/><path data-name="패스 12707" d="M3 58.633l-3 3h61.014L64 58.646v-.013z"/></g></g></g></svg><svg width="32" height="32" viewBox="-4 -4 32 32" id="icon_more" x="376" y="326" xmlns="http://www.w3.org/2000/svg"><path data-name="합치기 3" d="M10.5 24V13.5H0v-3h10.5V0h3v10.5H24v3H13.5V24z" fill="#fff"/></svg><svg width="128" height="138" viewBox="-4 -4 128 138" id="icon_nodata" x="376" y="188" xmlns="http://www.w3.org/2000/svg"><g data-name="그룹 394" fill="#d1d1d1"><path data-name="패스 12750" d="M0 1.186V130h105.6l14.4-14.35h-6.787l-9.6 9.566H4.8V5.97h110.4v97.719h4.8V1.189z"/><path data-name="사각형 20394" d="M33 39.999h10v12H33z"/><path data-name="사각형 20395" d="M55 39.999h10v12H55z"/><path data-name="사각형 20396" d="M77 39.999h10v12H77z"/></g></svg><svg width="108" height="108" viewBox="-4 -4 108 108" id="icon_pause" x="492" y="504.05" xmlns="http://www.w3.org/2000/svg"><path data-name="빼기 6" d="M50.001 100a49.84 49.84 0 1119.462-3.929A49.7 49.7 0 0150.001 100zm6-71v42h10V29zm-22 0v42h10V29z" fill="#fff" opacity=".5"/></svg><svg width="20" height="20" viewBox="-4 -4 20 20" id="icon_pin" x="780" y="408" xmlns="http://www.w3.org/2000/svg"><path data-name="합치기 27" d="M1.557 9.504l5.51-5.509H2.026V2.667h7.309v7.307H8.007V4.926L2.493 10.44z" fill="#121212"/></svg><svg width="108" height="108" viewBox="-4 -4 108 108" id="icon_play" x="384" y="504.05" xmlns="http://www.w3.org/2000/svg"><path data-name="빼기 2" d="M50 100a49.776 49.776 0 01-27.956-8.54 50.15 50.15 0 01-18.115-22 49.935 49.935 0 014.61-47.417 50.158 50.158 0 0122-18.115 49.93 49.93 0 0147.418 4.61 50.137 50.137 0 0118.116 22 49.935 49.935 0 01-4.61 47.417 50.136 50.136 0 01-22 18.115A49.689 49.689 0 0150 100zM37.307 25.769v48.462L74.23 50 37.307 25.769z" fill="#fff"/></svg><svg width="20" height="20" viewBox="-4 -4 20 20" id="icon_plus" x="844" y="754" xmlns="http://www.w3.org/2000/svg"><path data-name="합치기 2" d="M5 12V7H0V5h5V0h2v5h5v2H7v5z" fill="#888"/></svg><svg width="32" height="32" viewBox="-4 -4 32 32" id="icon_plus_white" x="512" y="376" xmlns="http://www.w3.org/2000/svg"><path data-name="합치기 3" d="M10.5 24V13.5H0v-3h10.5V0h3v10.5H24v3H13.5V24z" fill="#fff"/></svg><svg width="128" height="128.05" viewBox="-4 -4 128 128.05" id="icon_press" y="376" xmlns="http://www.w3.org/2000/svg"><g data-name="그룹 394"><path data-name="사각형 515" d="M46.764 94.964h4.8v24.984h-4.8z" fill="#121212"/><path data-name="사각형 516" d="M66.889 94.964h4.8v24.984h-4.8z" fill="#121212"/><path data-name="패스 12749" d="M28.3 119.851l57.4.2 4.784-4.779-57.4-.2z" fill="#121212"/><path data-name="패스 12750" d="M0 18.186v79.131h105.6L120 82.932h-6.787l-9.6 9.59H4.8V22.981h110.4v47.96h4.8V18.186z"/><path data-name="패스 12751" d="M100.275 79.983h-28.4V55.255h28.4zm-23.6-4.8h18.8V60.05H76.68z" fill="#121212"/><path data-name="패스 12752" d="M40.1 58.626H19.725v-23.61H40.1zm-15.573-4.8H35.3V39.812H24.525z" fill="#121212"/><path data-name="사각형 517" d="M48.803 40.867h44.103v4.796H48.803z" fill="#121212"/><path data-name="사각형 518" d="M19.717 65.22h43.264v4.796H19.717z" fill="#121212"/><path data-name="사각형 519" d="M34.799 74.212h28.183v4.796H34.799z" fill="#121212"/></g></svg><svg width="108" height="108" viewBox="-4 -4 108 108" id="icon_press_m" x="692" y="108" xmlns="http://www.w3.org/2000/svg"><g data-name="그룹 394"><path data-name="사각형 515" d="M38.97 79.102h4v20.811h-4z" fill="#121212"/><path data-name="사각형 516" d="M55.741 79.102h4v20.811h-4z" fill="#121212"/><path data-name="패스 12749" d="M23.584 99.833l47.832.167 3.987-3.981-47.832-.167z" fill="#121212"/><path data-name="패스 12750" d="M0 15.149v65.914h88l12-11.982h-5.656l-8 7.988H4V19.143h92v39.95h4V15.149z"/><path data-name="패스 12751" d="M83.562 66.624H59.899v-20.6h23.663zM63.9 62.629h15.663V50.02H63.9z" fill="#121212"/><path data-name="패스 12752" d="M33.412 48.834H16.437V29.168h16.975zM20.437 44.84h8.975V33.163h-8.975z" fill="#121212"/><path data-name="사각형 517" d="M40.669 34.041h36.753v3.995H40.669z" fill="#121212"/><path data-name="사각형 518" d="M16.431 54.326h36.053v3.995H16.431z" fill="#121212"/><path data-name="사각형 519" d="M28.999 61.817h23.486v3.995H28.999z" fill="#121212"/></g></svg><svg id="icon_print" width="48" height="48" viewBox="-4 -4 48 48" x="800" y="426" xmlns="http://www.w3.org/2000/svg"><defs><style>.cocls-2{fill:#121212}</style></defs><g id="co그룹_60228" data-name="그룹 60228"><path id="co패스_207135" data-name="패스 207135" class="cocls-2" d="M36 29h-6.72v-2H34V13H6v14h5v2H4V11h32z"/><path id="co패스_207136" data-name="패스 207136" class="cocls-2" d="M30 35H10V23h20zm-18-2h16v-8H12z"/><path id="co패스_207137" data-name="패스 207137" class="cocls-2" d="M30 13H10V4h20zm-18-2h16V6H12z"/></g></svg><svg id="icon_print_hover" width="48" height="48" viewBox="-4 -4 48 48" x="800" y="234" xmlns="http://www.w3.org/2000/svg"><defs><style>.cpcls-2{fill:#d1d1d1}</style></defs><g id="cp그룹_60228" data-name="그룹 60228"><path id="cp패스_207135" data-name="패스 207135" class="cpcls-2" d="M36 29h-6.72v-2H34V13H6v14h5v2H4V11h32z"/><path id="cp패스_207136" data-name="패스 207136" class="cpcls-2" d="M30 35H10V23h20zm-18-2h16v-8H12z"/><path id="cp패스_207137" data-name="패스 207137" class="cpcls-2" d="M30 13H10V4h20zm-18-2h16V6H12z"/></g></svg><svg width="128" height="128" viewBox="-4 -4 128 128" id="icon_promotion" x="128" y="376" xmlns="http://www.w3.org/2000/svg"><g data-name="그룹 402"><path data-name="패스 12753" d="M27.545 27.759h-7.81l15.9 12.384 2.948-3.787z"/><path data-name="패스 12754" d="M92.408 27.759l-11.035 8.6 2.948 3.787 15.9-12.384z"/><path data-name="패스 12755" d="M4.848 40.65H115.2v15.6H4.848zM.05 61.05H120v-25.2H.05z"/><path data-name="패스 12756" d="M62.36 40.65H34.772v-25.2h16.075L62.36 27.033zm-22.79-4.8h17.992v-6.837l-8.71-8.763H39.57z"/><path data-name="패스 12757" d="M85.228 40.65H57.639V27.033L69.152 15.45h16.076zm-22.79-4.8h17.991v-15.6h-9.282l-8.709 8.763z"/><path data-name="사각형 523" d="M57.576 26.224h4.798v89.36h-4.798z"/><path data-name="패스 12758" d="M9.7 56.249v63.623h85.362l15.392-15.4v-.055h-6.73l-10.65 10.654h-78.58V61.05h91.162v31.367h4.8V56.249z"/></g></svg><svg width="108" height="108" viewBox="-4 -4 108 108" id="icon_promotion_m" x="564" y="384" xmlns="http://www.w3.org/2000/svg"><g data-name="그룹 402"><path data-name="패스 12753" d="M22.954 23.132h-6.508l13.248 10.32 2.457-3.156z"/><path data-name="패스 12754" d="M77.007 23.132l-9.2 7.164 2.457 3.156 13.247-10.32z"/><path data-name="패스 12755" d="M4.04 33.875h91.962v13H4.04zm-4 17h99.957v-21H.042z"/><path data-name="패스 12756" d="M51.967 33.875h-22.99v-21h13.4l9.59 9.65zm-18.992-4h14.994v-5.7l-7.258-7.3h-7.736z"/><path data-name="패스 12757" d="M71.024 33.875H48.033v-11.35l9.594-9.653h13.4zm-18.992-4h14.993v-13h-7.731l-7.258 7.3z"/><path data-name="사각형 523" d="M47.98 21.853h3.998V96.32H47.98z"/><path data-name="패스 12758" d="M8.084 46.874v53.019h71.134l12.827-12.832v-.046h-5.609l-8.875 8.878H12.078V50.875h75.968v26.139h4v-30.14z"/></g></svg><svg width="64" height="64" viewBox="-4 -4 64 64" id="icon_scroll_left" x="692" y="704.05" xmlns="http://www.w3.org/2000/svg"><circle data-name="타원 57" cx="28" cy="28" r="28" fill="#efefef"/><g data-name="그룹 60223"><path data-name="패스 12661" d="M30.258 38.741L20.1 28.583l10.158-10.158 1.65 1.65-8.509 8.508 8.508 8.509z" fill="#121212"/></g></svg><svg width="64" height="64" viewBox="-4 -4 64 64" id="icon_scroll_left_hover" x="692" y="568" xmlns="http://www.w3.org/2000/svg"><circle data-name="타원 57" cx="28" cy="28" r="28" fill="#d3d3d3"/><g data-name="그룹 60223"><path data-name="패스 12661" d="M30.258 38.741L20.1 28.583l10.158-10.158 1.65 1.65-8.509 8.508 8.508 8.509z" fill="#121212"/></g></svg><svg width="88" height="88" viewBox="-4 -4 88 88" id="icon_scroll_m" x="692" y="408" xmlns="http://www.w3.org/2000/svg"><defs><style>.cucls-2{fill:#fff}</style></defs><g id="cuic_scroll_m" transform="translate(-140 -578)"><g id="cu그룹_60427" data-name="그룹 60427" transform="translate(142.037 583.161)"><path id="cu패스_248862" data-name="패스 248862" class="cucls-2" d="M53.413 70.047h-4V61.62l7.053-8.763V37.025a2.007 2.007 0 00-1.472-1.93l-20.615-5.648V10.406c.006-.17.006-.24 0-.31a2.2 2.2 0 10-4.4.213v36.66h-4V10.406a6.093 6.093 0 011.6-4.37A6.2 6.2 0 0138.377 9.9a5.852 5.852 0 010 .607v15.889l17.673 4.843a6.015 6.015 0 014.414 5.787v17.241l-7.051 8.763z"/><path id="cu패스_248863" data-name="패스 248863" class="cucls-2" d="M28.241 70.5h-4v-7.408l-8.177-10.055.007-13.929c.23-2.785 3.015-8.051 11.916-8.051v4c-6.911 0-7.813 3.648-7.923 4.342v12.217l8.177 10.056z"/><path id="cu사각형_20548" data-name="사각형 20548" class="cucls-2" transform="translate(2.93 7.374)" d="M0 0h18.058v4H0z"/><path id="cu패스_248864" data-name="패스 248864" class="cucls-2" d="M9.414 18.828L0 9.414 9.414 0l2.828 2.828-6.586 6.586L12.242 16z"/><path id="cu사각형_20549" data-name="사각형 20549" class="cucls-2" transform="translate(43.828 7.374)" d="M0 0h18.058v4H0z"/><path id="cu패스_248865" data-name="패스 248865" class="cucls-2" d="M55.4 18.828L52.573 16l6.586-6.586-6.586-6.586L55.4 0l9.414 9.414z"/></g></g></svg><svg id="icon_share" width="48" height="48" viewBox="-4 -4 48 48" x="800" y="378" xmlns="http://www.w3.org/2000/svg"><defs><style>.cvcls-2{fill:#121212}</style></defs><g id="cv그룹_60227" data-name="그룹 60227"><path id="cv패스_207133" data-name="패스 207133" class="cvcls-2" d="M30 34H6V10h8.9v2H8v20h20v-9.268h2z"/><path id="cv패스_207134" data-name="패스 207134" class="cvcls-2" d="M26.506 7.819L33.1 13.1l-6.6 5.279v-.952l-.014-2h-2a23.377 23.377 0 00-5.965.884 16.948 16.948 0 00-2.47.918 11.207 11.207 0 018.735-6.474l1.714-.248V7.819zm-2-4.163v5.116c-11.62 1.676-12.2 14.884-12.2 14.884 2.245-6.165 11.776-6.232 12.19-6.232h.014v5.115L36.3 13.1z"/></g></svg><svg width="96" height="96" viewBox="-4 -4 96 96" id="icon_share_facebook" x="692" y="312" xmlns="http://www.w3.org/2000/svg"><g id="cwlogo_facebook_88" transform="translate(-1034 -883)"><circle id="cw타원_61" data-name="타원 61" cx="44" cy="44" r="44" transform="translate(1034 883)" fill="#3b5998"/><g id="cwlogo" transform="translate(1070.5 910.964)"><path id="cw패스_30" data-name="패스 30" d="M14.919 0v5.528h-3.008a1.842 1.842 0 00-1.748.732 3.393 3.393 0 00-.285 1.667v2.52H15l-.611 5.568H9.878v16.057H3.253V16.015H0v-5.568h3.253V7.114C3.253 3.7 4.431 1.5 6.748.569A8.13 8.13 0 019.878 0z" fill="#fff"/></g></g></svg><svg id="icon_share_hover" width="48" height="48" viewBox="-4 -4 48 48" x="800" y="474" xmlns="http://www.w3.org/2000/svg"><defs><style>.cxcls-2{fill:#d1d1d1}</style></defs><g id="cx그룹_60227" data-name="그룹 60227"><path id="cx패스_207133" data-name="패스 207133" class="cxcls-2" d="M30 34H6V10h8.9v2H8v20h20v-9.268h2z"/><path id="cx패스_207134" data-name="패스 207134" class="cxcls-2" d="M26.506 7.819L33.1 13.1l-6.6 5.279v-.952l-.014-2h-2a23.377 23.377 0 00-5.965.884 16.948 16.948 0 00-2.47.918 11.207 11.207 0 018.735-6.474l1.714-.248V7.819zm-2-4.163v5.116c-11.62 1.676-12.2 14.884-12.2 14.884 2.245-6.165 11.776-6.232 12.19-6.232h.014v5.115L36.3 13.1z"/></g></svg><svg id="icon_share_m" width="40" height="40" viewBox="-4 -4 40 40" x="756" y="568" xmlns="http://www.w3.org/2000/svg"><defs><style>.cycls-2{fill:#121212}</style></defs><g id="cy그룹_60227" data-name="그룹 60227" transform="translate(4.8 2.925)"><path id="cy패스_207133" data-name="패스 207133" class="cycls-2" d="M25.2 29.2H6V10h7.118v1.6H7.6v16h16v-7.414h1.6z" transform="translate(-6 -4.925)"/><path id="cy패스_207134" data-name="패스 207134" class="cycls-2" d="M23.665 6.986l5.276 4.222-5.276 4.223v-.761l-.011-1.6h-1.6a18.7 18.7 0 00-4.772.707 13.559 13.559 0 00-1.976.734 8.966 8.966 0 016.988-5.179l1.371-.2V6.986zm-1.6-3.33v4.093C12.769 9.09 12.3 19.656 12.3 19.656c1.8-4.932 9.421-4.986 9.752-4.986h.011v4.092l9.437-7.553z" transform="translate(-7.261 -3.656)"/></g></svg><svg width="96" height="96" viewBox="-4 -4 96 96" id="icon_share_twitter" x="692" y="216" xmlns="http://www.w3.org/2000/svg"><g id="czlogo_tweeter_88" transform="translate(-906 -883)"><circle id="cz타원_62" data-name="타원 62" cx="44" cy="44" r="44" transform="translate(906 883)" fill="#55acee"/><g id="czlogo" transform="translate(-447 -4968.847)"><path id="cz패스_43" data-name="패스 43" d="M318.32 399.77a14.767 14.767 0 01-4.242 1.163 7.407 7.407 0 003.247-4.086 14.784 14.784 0 01-4.69 1.792 7.392 7.392 0 00-12.585 6.736 20.968 20.968 0 01-15.223-7.717 7.393 7.393 0 002.286 9.861 7.357 7.357 0 01-3.345-.924v.093a7.391 7.391 0 005.925 7.242 7.4 7.4 0 01-3.335.126 7.393 7.393 0 006.9 5.129 14.818 14.818 0 01-9.173 3.162 15.023 15.023 0 01-1.762-.1 20.9 20.9 0 0011.322 3.318c13.585 0 21.014-11.254 21.014-21.014q0-.48-.021-.956a15.006 15.006 0 003.685-3.823z" transform="translate(1096.68 5484.912)" fill="#fff"/></g></g></svg><svg width="72" height="72" viewBox="-4 -4 72 72" id="icon_specialy" x="600" y="504.05" xmlns="http://www.w3.org/2000/svg"><defs><clipPath id="daa"><path data-name="사각형 480" d="M0 0h64v64H0z" fill="#d1d1d1"/></clipPath></defs><g data-name="그룹 358"><g data-name="그룹 357"><g data-name="그룹 356" clip-path="url(#daa)" fill="#d1d1d1"><path data-name="패스 12708" d="M11.217 36.834l-.036-.016-.046.215c.029-.067.053-.132.082-.2"/><path data-name="패스 12709" d="M54.991 9.009c-3.843-3.839-10.462-4.221-18.16-1.047l3.34 1.968c5.485-1.769 10.135-1.361 12.7 1.2 5.507 5.506.6 19.716-10.711 31.029-5.692 5.694-12.153 9.9-18.193 11.855-5.7 1.841-10.257 1.435-12.836-1.144-2.774-2.774-2.985-7.882-.654-14.178l-1.972-3.034-.04-.018c-3.615 8.339-3.416 15.393.544 19.352a11.675 11.675 0 008.545 3.155 24.076 24.076 0 007.333-1.277c6.484-2.095 13.372-6.57 19.393-12.589C57.173 31.389 61.877 15.9 54.991 9.009"/><path data-name="패스 12710" d="M29.15 16.029l-2.9-1.494a63.243 63.243 0 00-6.436 5.607A61.591 61.591 0 0014.8 25.8l1.611 2.814a58.505 58.505 0 015.522-6.348 60.3 60.3 0 017.254-6.189z"/><path data-name="패스 12711" d="M43.319 21.8a59.934 59.934 0 015.281 5.813l1.364-3.06a63.075 63.075 0 00-4.564-4.916C32.133 6.839 16.2 2.159 9.115 8.981a11.5 11.5 0 00-3.255 8.534c0 7.9 5.479 18.1 14.3 26.612a60.665 60.665 0 006.472 5.438l2.87-1.586.017-.025a57.959 57.959 0 01-7.274-5.983C14.113 34.123 8.858 24.524 8.86 17.516a8.479 8.479 0 012.34-6.375c5.71-5.511 20.422-.628 32.119 10.659"/><path data-name="패스 12712" d="M56.195 36.769l-2.053 3.21c1.7 5.518 1.238 10.212-1.356 12.805-2.641 2.643-7.414 3.036-13.3 1.167l-3.374 1.982a27.74 27.74 0 0010.062 2.2 11.909 11.909 0 008.73-3.228c3.847-3.847 4.317-10.457 1.288-18.137"/></g></g></g></svg><svg width="72" height="72" viewBox="-4 -4 72 72" id="icon_specialy_active" x="144" y="704.05" xmlns="http://www.w3.org/2000/svg"><defs><clipPath id="dba"><path data-name="사각형 480" d="M0 0h64v64H0z" fill="none"/></clipPath></defs><g data-name="그룹 358"><g data-name="그룹 357"><g data-name="그룹 356" clip-path="url(#dba)"><path data-name="패스 12708" d="M11.217 36.834l-.036-.016-.046.215c.029-.067.053-.132.082-.2"/><path data-name="패스 12709" d="M54.991 9.009c-3.843-3.839-10.462-4.221-18.16-1.047l3.34 1.968c5.485-1.769 10.135-1.361 12.7 1.2 5.507 5.506.6 19.716-10.711 31.029-5.692 5.694-12.153 9.9-18.193 11.855-5.7 1.841-10.257 1.435-12.836-1.144-2.774-2.774-2.985-7.882-.654-14.178l-1.972-3.034-.04-.018c-3.615 8.339-3.416 15.393.544 19.352a11.675 11.675 0 008.545 3.155 24.076 24.076 0 007.333-1.277c6.484-2.095 13.372-6.57 19.393-12.589C57.173 31.389 61.877 15.9 54.991 9.009"/><path data-name="패스 12710" d="M29.15 16.029l-2.9-1.494a63.243 63.243 0 00-6.436 5.607A61.591 61.591 0 0014.8 25.8l1.611 2.814a58.505 58.505 0 015.522-6.348 60.3 60.3 0 017.254-6.189z"/><path data-name="패스 12711" d="M43.319 21.8a59.934 59.934 0 015.281 5.813l1.364-3.06a63.075 63.075 0 00-4.564-4.916C32.133 6.839 16.2 2.159 9.115 8.981a11.5 11.5 0 00-3.255 8.534c0 7.9 5.479 18.1 14.3 26.612a60.665 60.665 0 006.472 5.438l2.87-1.586.017-.025a57.959 57.959 0 01-7.274-5.983C14.113 34.123 8.858 24.524 8.86 17.516a8.479 8.479 0 012.34-6.375c5.71-5.511 20.422-.628 32.119 10.659"/><path data-name="패스 12712" d="M56.195 36.769l-2.053 3.21c1.7 5.518 1.238 10.212-1.356 12.805-2.641 2.643-7.414 3.036-13.3 1.167l-3.374 1.982a27.74 27.74 0 0010.062 2.2 11.909 11.909 0 008.73-3.228c3.847-3.847 4.317-10.457 1.288-18.137"/></g></g></g></svg><svg width="26" height="26" viewBox="-4 -4 26 26" id="icon_success" x="536" y="284" xmlns="http://www.w3.org/2000/svg"><g id="dcic_check_18" transform="translate(-849 -72)"><path id="dc패스_248856" data-name="패스 248856" d="M13 0L5.486 7.905 1.449 3.659 0 5.037l5.486 5.771 8.964-9.43z" transform="translate(850.775 76)" fill="#fff"/></g></svg><svg width="128" height="128" viewBox="-4 -4 128 128" id="icon_thumb_automotive" x="384" y="376" xmlns="http://www.w3.org/2000/svg"><defs><clipPath id="ddclip-path"><path id="dd사각형_454" data-name="사각형 454" class="ddcls-1" d="M0 0h120v120H0z"/></clipPath><style>.ddcls-1{fill:#d1d1d1}.ddcls-2{clip-path:url(#ddclip-path)}</style></defs><g id="ddic_automotive_bk_120" transform="translate(0 -16)"><g id="dd그룹_334" data-name="그룹 334" class="ddcls-2" transform="translate(0 16)"><path id="dd패스_12683" data-name="패스 12683" class="ddcls-1" d="M16.2 34.907l-4.417-3.48 16.23-20.608H71.2l16.23 20.608-4.419 3.48-14.537-18.463H30.747z" transform="translate(10.314 9.466)"/><path id="dd패스_12684" data-name="패스 12684" class="ddcls-1" d="M105.29 73.628H88.578L76.555 52.214h-39.14L25.394 73.628H8.68L3.359 37.443l6.058-8.286 4.541 3.321L9.26 38.9 13.538 68H22.1l12.022-21.411h45.726L91.87 68h8.561l4.279-29.1-4.7-6.426 4.541-3.321 6.058 8.286z" transform="translate(2.939 25.512)"/><path id="dd사각형_452" data-name="사각형 452" class="ddcls-1" transform="translate(30.729 86.314)" d="M0 0h58.187v5.625H0z"/><g id="dd그룹_333" data-name="그룹 333"><g id="dd그룹_332" data-name="그룹 332" class="ddcls-2"><path id="dd패스_12685" data-name="패스 12685" class="ddcls-1" d="M110.576 23.576l-9.433-.015-16.371 13.406H32.758L16.385 23.561l-9.42.015-5.64 5.64c.077 0 10.476-.017 13.057-.024l16.367 13.4H86.78l16.365-13.4c2.591.008 11.186.015 11.186.015z" transform="translate(1.159 20.616)"/></g></g></g></g></svg><svg id="icon_thumb_automotive_m" width="68" height="68" viewBox="-4 -4 68 68" x="560" y="704.05" xmlns="http://www.w3.org/2000/svg"><defs><clipPath id="declip-path"><path id="de사각형_454" data-name="사각형 454" class="decls-1" d="M0 0h60v60H0z"/></clipPath><style>.decls-1{fill:#d1d1d1}.decls-2{clip-path:url(#declip-path)}</style></defs><g id="de그룹_334" data-name="그룹 334" class="decls-2"><path id="de패스_12683" data-name="패스 12683" class="decls-1" d="M14 22.863l-2.209-1.74 8.115-10.3H41.5l8.115 10.3-2.21 1.74-7.27-9.232H21.267z" transform="translate(-.737 -.676)"/><path id="de패스_12684" data-name="패스 12684" class="decls-1" d="M54.324 51.393h-8.356l-6.011-10.707h-19.57l-6.01 10.707H6.02L3.359 33.3l3.029-4.143 2.271 1.66-2.35 3.213 2.14 14.55h4.281l6.01-10.707H41.6l6.015 10.707H51.9l2.139-14.55-2.349-3.213 2.271-1.66 3.024 4.143z" transform="translate(-.21 -1.822)"/><path id="de사각형_452" data-name="사각형 452" class="decls-1" transform="translate(15.365 43.157)" d="M0 0h29.093v2.812H0z"/><g id="de그룹_333" data-name="그룹 333"><g id="de그룹_332" data-name="그룹 332" class="decls-2"><path id="de패스_12685" data-name="패스 12685" class="decls-1" d="M55.95 23.569l-4.717-.008-8.185 6.7H17.041l-8.186-6.7-4.71.008-2.82 2.82c.038 0 5.238-.008 6.529-.012l8.183 6.7h28.015l8.183-6.7c1.3 0 5.593.007 5.593.007z" transform="translate(-.083 -1.473)"/></g></g></g></svg><svg id="icon_thumb_hydraulic" width="128" height="128" viewBox="-4 -4 128 128" x="564" xmlns="http://www.w3.org/2000/svg"><defs><clipPath id="dfclip-path"><path id="df사각형_462" data-name="사각형 462" class="dfcls-1" d="M0 0h120v120H0z"/></clipPath><style>.dfcls-1{fill:#d1d1d1}.dfcls-2{clip-path:url(#dfclip-path)}</style></defs><g id="df그룹_340" data-name="그룹 340" class="dfcls-2"><g id="df그룹_339" data-name="그룹 339"><g id="df그룹_338" data-name="그룹 338" class="dfcls-2"><path id="df패스_12686" data-name="패스 12686" class="dfcls-1" d="M21.84 40.48a18 18 0 1118-18 18.02 18.02 0 01-18 18m0-30.375A12.375 12.375 0 1034.215 22.48 12.39 12.39 0 0021.84 10.105" transform="translate(3.36 3.92)"/><path id="df패스_12687" data-name="패스 12687" class="dfcls-1" d="M58.64 32.8a13.2 13.2 0 1113.2-13.2 13.215 13.215 0 01-13.2 13.2m0-20.775a7.575 7.575 0 107.575 7.575 7.583 7.583 0 00-7.575-7.575" transform="translate(39.76 5.6)"/><path id="df패스_12688" data-name="패스 12688" class="dfcls-1" d="M36.628 23.779H20.519v-5.625h14.834l5-2.387h33.3v5.625H41.625z" transform="translate(17.955 13.796)"/><path id="df패스_12689" data-name="패스 12689" class="dfcls-1" d="M75.987 14.182H42.106l-5-2.387H18.517V6.17h19.865l5 2.387h32.605z" transform="translate(16.202 5.399)"/><path id="df사각형_457" data-name="사각형 457" class="dfcls-1" transform="rotate(-10.66 213.214 -46.857)" d="M0 0h5.625v57.195H0z"/><path id="df패스_12690" data-name="패스 12690" class="dfcls-1" d="M73.425 44.79H45.3V26.04h28.125zm-22.5-5.625H67.8v-7.5H50.925z" transform="translate(39.638 22.785)"/><path id="df사각형_458" data-name="사각형 458" class="dfcls-1" transform="translate(96.188 75.949)" d="M0 0h5.625v8.831H0z"/><path id="df사각형_459" data-name="사각형 459" class="dfcls-1" transform="translate(89.529 41.916)" d="M0 0h5.625v8.323H0z"/><path id="df사각형_460" data-name="사각형 460" class="dfcls-1" transform="translate(102.729 41.916)" d="M0 0h5.625v9.302H0z"/><path id="df패스_12691" data-name="패스 12691" class="dfcls-1" d="M56.423 69.845H3.84V49.22h60v13.207zM9.465 64.22h44.629l4.121-4.12v-5.255H9.465z" transform="translate(3.36 43.068)"/><path id="df패스_12692" data-name="패스 12692" class="dfcls-1" d="M33.483 68.67l-9.474-48.756-5.522 1.073 9.264 47.683z" transform="translate(16.176 17.425)"/><path id="df패스_12693" data-name="패스 12693" class="dfcls-1" d="M57.175 50.108L47.8 46.579V33.04h18.75v13.539zm-3.75-7.421l3.75 1.412 3.75-1.412v-4.022h-7.5z" transform="translate(41.825 28.91)"/></g></g></g></svg><svg id="icon_thumb_hydraulic_m" width="68" height="68" viewBox="-4 -4 68 68" x="424" y="704.05" xmlns="http://www.w3.org/2000/svg"><defs><clipPath id="dgclip-path"><path id="dg사각형_462" data-name="사각형 462" class="dgcls-1" d="M0 0h60v60H0z"/></clipPath><style>.dgcls-1{fill:#d1d1d1}.dgcls-2{clip-path:url(#dgclip-path)}</style></defs><g id="dg그룹_340" data-name="그룹 340" class="dgcls-2"><g id="dg그룹_339" data-name="그룹 339"><g id="dg그룹_338" data-name="그룹 338" class="dgcls-2"><path id="dg패스_12686" data-name="패스 12686" class="dgcls-1" d="M12.84 22.48a9 9 0 119-9 9.01 9.01 0 01-9 9m0-15.187a6.187 6.187 0 106.188 6.187 6.195 6.195 0 00-6.188-6.187" transform="translate(-.24 -.28)"/><path id="dg패스_12687" data-name="패스 12687" class="dgcls-1" d="M52.04 19.6a6.6 6.6 0 116.6-6.6 6.607 6.607 0 01-6.6 6.6m0-10.388A3.787 3.787 0 1055.827 13a3.791 3.791 0 00-3.787-3.787" transform="translate(-2.84 -.4)"/><path id="dg패스_12688" data-name="패스 12688" class="dgcls-1" d="M28.574 19.773h-8.055V16.96h7.417l2.5-1.193h16.648v2.813H31.072z" transform="translate(-1.282 -.985)"/><path id="dg패스_12689" data-name="패스 12689" class="dgcls-1" d="M47.252 10.176H30.311l-2.5-1.193h-9.3V6.17h9.939l2.5 1.193h16.3z" transform="translate(-1.157 -.386)"/><path id="dg사각형_457" data-name="사각형 457" class="dgcls-1" transform="rotate(-10.66 106.607 -23.429)" d="M0 0h2.812v28.598H0z"/><path id="dg패스_12690" data-name="패스 12690" class="dgcls-1" d="M59.362 35.415H45.3V26.04h14.062zM48.112 32.6h8.438v-3.75h-8.438z" transform="translate(-2.831 -1.627)"/><path id="dg사각형_458" data-name="사각형 458" class="dgcls-1" transform="translate(48.094 37.974)" d="M0 0h2.812v4.416H0z"/><path id="dg사각형_459" data-name="사각형 459" class="dgcls-1" transform="translate(44.765 20.958)" d="M0 0h2.812v4.162H0z"/><path id="dg사각형_460" data-name="사각형 460" class="dgcls-1" transform="translate(51.365 20.958)" d="M0 0h2.812v4.651H0z"/><path id="dg패스_12691" data-name="패스 12691" class="dgcls-1" d="M30.131 59.532H3.84V49.22h30v6.6zM6.652 56.72h22.315l2.061-2.061v-2.627H6.652z" transform="translate(-.24 -3.076)"/><path id="dg패스_12692" data-name="패스 12692" class="dgcls-1" d="M25.985 44.292l-4.737-24.378-2.761.536 4.632 23.842z" transform="translate(-1.155 -1.245)"/><path id="dg패스_12693" data-name="패스 12693" class="dgcls-1" d="M52.487 41.574L47.8 39.81v-6.77h9.375v6.77zm-1.875-3.711l1.875.706 1.875-.706v-2.011h-3.75z" transform="translate(-2.987 -2.065)"/></g></g></g></svg><svg id="icon_thumb_industrial" width="128" height="128" viewBox="-4 -4 128 128" x="564" y="128" xmlns="http://www.w3.org/2000/svg"><defs><clipPath id="dhclip-path"><path id="dh사각형_468" data-name="사각형 468" class="dhcls-1" d="M0 0h120v120H0z"/></clipPath><style>.dhcls-1{fill:#d1d1d1}</style></defs><g id="dh그룹_346" data-name="그룹 346" clip-path="url(#dhclip-path)"><path id="dh패스_12694" data-name="패스 12694" class="dhcls-1" d="M73.833 109.6h-5.625V8.806H52.391v100.789h-5.625V3.181h27.067z" transform="translate(40.92 2.783)"/><path id="dh사각형_466" data-name="사각형 466" class="dhcls-1" transform="translate(91.123 30.636)" d="M0 0h20.451v5.625H0z"/><path id="dh사각형_467" data-name="사각형 467" class="dhcls-1" transform="translate(91.123 43.836)" d="M0 0h20.451v5.625H0z"/><path id="dh패스_12695" data-name="패스 12695" class="dhcls-1" d="M17.241 30.617v.2L11.62 32.49v10.127h5.625v-12z" transform="translate(10.167 26.79)"/><path id="dh패스_12696" data-name="패스 12696" class="dhcls-1" d="M20.58 32.4v10.122h5.625v-11.8z" transform="translate(18.008 26.885)"/><path id="dh패스_12697" data-name="패스 12697" class="dhcls-1" d="M29.54 32.408v10.108h5.625V30.732z" transform="translate(25.848 26.89)"/><path id="dh패스_12698" data-name="패스 12698" class="dhcls-1" d="M38.5 32.408v10.11h5.625V30.731z" transform="translate(33.688 26.89)"/><path id="dh패스_12699" data-name="패스 12699" class="dhcls-1" d="M17.241 42.78v.2l-5.621 1.673V54.78h5.625v-12z" transform="translate(10.167 37.433)"/><path id="dh패스_12700" data-name="패스 12700" class="dhcls-1" d="M20.58 44.565v10.12h5.625v-11.8z" transform="translate(18.008 37.528)"/><path id="dh패스_12701" data-name="패스 12701" class="dhcls-1" d="M29.54 44.571v10.108h5.625V42.895z" transform="translate(25.848 37.533)"/><path id="dh패스_12702" data-name="패스 12702" class="dhcls-1" d="M38.5 44.571v10.11h5.625V42.895z" transform="translate(33.688 37.533)"/><path id="dh패스_12703" data-name="패스 12703" class="dhcls-1" d="M76.771 97.486v-.036H8.365V41.22l80.541-24-1.606-5.393L2.74 37.025v66.051h68.441z" transform="translate(2.398 10.349)"/></g></svg><svg id="icon_thumb_industrial_m" width="68" height="68" viewBox="-4 -4 68 68" x="356" y="704.05" xmlns="http://www.w3.org/2000/svg"><defs><clipPath id="diclip-path"><path id="di사각형_468" data-name="사각형 468" class="dicls-1" d="M0 0h60v60H0z"/></clipPath><style>.dicls-1{fill:#d1d1d1}</style></defs><g id="di그룹_346" data-name="그룹 346" clip-path="url(#diclip-path)"><path id="di패스_12694" data-name="패스 12694" class="dicls-1" d="M60.3 56.389h-2.813V5.993h-7.909v50.395h-2.812V3.181H60.3z" transform="translate(-2.923 -.199)"/><path id="di사각형_466" data-name="사각형 466" class="dicls-1" transform="translate(45.562 15.318)" d="M0 0h10.225v2.813H0z"/><path id="di사각형_467" data-name="사각형 467" class="dicls-1" transform="translate(45.562 21.918)" d="M0 0h10.225v2.813H0z"/><path id="di패스_12695" data-name="패스 12695" class="dicls-1" d="M14.431 30.617v.1l-2.811.837v5.063h2.812v-6z" transform="translate(-.726 -1.914)"/><path id="di패스_12696" data-name="패스 12696" class="dicls-1" d="M20.58 31.564v5.06h2.813v-5.9z" transform="translate(-1.286 -1.92)"/><path id="di패스_12697" data-name="패스 12697" class="dicls-1" d="M29.54 31.57v5.054h2.813v-5.892z" transform="translate(-1.846 -1.921)"/><path id="di패스_12698" data-name="패스 12698" class="dicls-1" d="M38.5 31.57v5.055h2.813v-5.894z" transform="translate(-2.406 -1.921)"/><path id="di패스_12699" data-name="패스 12699" class="dicls-1" d="M14.431 42.78v.1l-2.811.837v5.063h2.812v-6z" transform="translate(-.726 -2.674)"/><path id="di패스_12700" data-name="패스 12700" class="dicls-1" d="M20.58 43.727v5.06h2.813v-5.9z" transform="translate(-1.286 -2.681)"/><path id="di패스_12701" data-name="패스 12701" class="dicls-1" d="M29.54 43.733v5.054h2.813v-5.892z" transform="translate(-1.846 -2.681)"/><path id="di패스_12702" data-name="패스 12702" class="dicls-1" d="M38.5 43.733v5.055h2.813v-5.893z" transform="translate(-2.406 -2.681)"/><path id="di패스_12703" data-name="패스 12703" class="dicls-1" d="M39.756 54.657v-.018H5.553V26.523l40.27-12-.8-2.7L2.74 24.426v33.025h34.221z" transform="translate(-.171 -.739)"/></g></svg><svg id="icon_thumb_marine" width="128" height="128" viewBox="-4 -4 128 128" x="564" y="256" xmlns="http://www.w3.org/2000/svg"><defs><clipPath id="djclip-path"><path id="dj사각형_476" data-name="사각형 476" class="djcls-1" d="M0 0h120v120H0z"/></clipPath><style>.djcls-1{fill:#d1d1d1}.djcls-2{clip-path:url(#djclip-path)}</style></defs><g id="dj그룹_352" data-name="그룹 352" class="djcls-2"><g id="dj그룹_351" data-name="그룹 351"><g id="dj그룹_350" data-name="그룹 350" class="djcls-2"><path id="dj패스_12704" data-name="패스 12704" class="djcls-1" d="M17.591 89.977l-5.486-1.236a2.25 2.25 0 00-.06.579C11.9 87 6.593 63.754 3.283 49.644l-.566-2.409 54.84-20.5 54.93 20.49-9.345 42.74-5.5-1.2 8.306-37.974-48.387-18.057L9.324 50.769c8.711 37.239 8.436 38.467 8.267 39.208" transform="translate(2.377 23.389)"/><path id="dj사각형_471" data-name="사각형 471" class="djcls-1" transform="translate(57.187 53.194)" d="M0 0h5.625v59.156H0z"/><path id="dj사각형_472" data-name="사각형 472" class="djcls-1" transform="translate(44.902 68.18)" d="M0 0h5.625v10.5H0z"/><path id="dj사각형_473" data-name="사각형 473" class="djcls-1" transform="translate(69.474 68.18)" d="M0 0h5.625v10.5H0z"/><path id="dj패스_12705" data-name="패스 12705" class="djcls-1" d="M50.211 27.412h-5.625V6.886H31.011v20.526h-5.625V1.261h24.825z" transform="translate(22.213 1.103)"/><path id="dj사각형_474" data-name="사각형 474" class="djcls-1" transform="translate(50.411 10.236)" d="M0 0h18.844v5.625H0z"/><path id="dj패스_12706" data-name="패스 12706" class="djcls-1" d="M11.3 13.706v32.483l5.625-2.094V19.331H83.3v24.778l5.595 2.083h.03V13.706z" transform="translate(9.887 11.993)"/><path id="dj패스_12707" data-name="패스 12707" class="djcls-1" d="M5.623 58.633L0 64.256h114.4l5.6-5.6v-.024z" transform="translate(0 51.303)"/></g></g></g></svg><svg id="icon_thumb_marine_m" width="68" height="68" viewBox="-4 -4 68 68" x="288" y="704.05" xmlns="http://www.w3.org/2000/svg"><defs><clipPath id="dkclip-path"><path id="dk사각형_476" data-name="사각형 476" class="dkcls-1" d="M0 0h60v60H0z"/></clipPath><style>.dkcls-1{fill:#d1d1d1}.dkcls-2{clip-path:url(#dkclip-path)}</style></defs><g id="dk그룹_352" data-name="그룹 352" class="dkcls-2"><g id="dk그룹_351" data-name="그룹 351"><g id="dk그룹_350" data-name="그룹 350" class="dkcls-2"><path id="dk패스_12704" data-name="패스 12704" class="dkcls-1" d="M10.154 58.354l-2.743-.618a1.125 1.125 0 00-.03.29C7.307 56.865 4.655 45.242 3 38.187l-.283-1.2 27.42-10.257L57.6 36.975l-4.672 21.37-2.749-.6 4.153-18.987-24.193-9.026L6.021 38.75c4.356 18.62 4.218 19.234 4.133 19.6" transform="translate(-.17 -1.671)"/><path id="dk사각형_471" data-name="사각형 471" class="dkcls-1" transform="translate(28.594 26.597)" d="M0 0h2.812v29.578H0z"/><path id="dk사각형_472" data-name="사각형 472" class="dkcls-1" transform="translate(22.451 34.09)" d="M0 0h2.812v5.25H0z"/><path id="dk사각형_473" data-name="사각형 473" class="dkcls-1" transform="translate(34.737 34.09)" d="M0 0h2.812v5.25H0z"/><path id="dk패스_12705" data-name="패스 12705" class="dkcls-1" d="M37.8 14.336h-2.814V4.073H28.2v10.263h-2.814V1.261H37.8z" transform="translate(-1.587 -.079)"/><path id="dk사각형_474" data-name="사각형 474" class="dkcls-1" transform="translate(25.206 5.118)" d="M0 0h9.422v2.812H0z"/><path id="dk패스_12706" data-name="패스 12706" class="dkcls-1" d="M11.3 13.706v16.241l2.812-1.047V16.519H47.3v12.389l2.8 1.042h.015V13.706z" transform="translate(-.706 -.857)"/><path id="dk패스_12707" data-name="패스 12707" class="dkcls-1" d="M2.811 58.633L0 61.444h57.2l2.8-2.8v-.012z" transform="translate(0 -3.665)"/></g></g></g></svg><svg id="icon_thumb_specialty" width="128" height="128" viewBox="-4 -4 128 128" y="504.05" xmlns="http://www.w3.org/2000/svg"><defs><clipPath id="dlclip-path"><path id="dl사각형_480" data-name="사각형 480" class="dlcls-1" d="M0 0h120v120H0z"/></clipPath><style>.dlcls-1{fill:#d1d1d1}.dlcls-2{clip-path:url(#dlclip-path)}</style></defs><g id="dl그룹_358" data-name="그룹 358" class="dlcls-2"><g id="dl그룹_357" data-name="그룹 357"><g id="dl그룹_356" data-name="그룹 356" class="dlcls-2"><path id="dl패스_12708" data-name="패스 12708" class="dlcls-1" d="M11.289 36.848l-.068-.03-.086.4c.054-.126.1-.247.154-.373" transform="translate(9.743 32.216)"/><path id="dl패스_12709" data-name="패스 12709" class="dlcls-1" d="M97.955 11.792c-7.206-7.2-19.616-7.914-34.05-1.963l6.262 3.69c10.284-3.317 19-2.552 23.811 2.252C104.3 26.095 95.1 52.738 73.895 73.95 63.222 84.626 51.108 92.52 39.783 96.178 29.1 99.63 20.551 98.869 15.715 94.033c-5.2-5.2-5.6-14.779-1.226-26.584l-3.7-5.691-.075-.034c-6.778 15.636-6.4 28.862 1.02 36.285 3.923 3.926 9.414 5.916 16.022 5.916a45.142 45.142 0 0013.749-2.394C53.667 97.6 66.582 89.22 77.872 77.927c24.174-24.172 32.994-53.227 20.083-66.135" transform="translate(5.153 5.1)"/><path id="dl패스_12710" data-name="패스 12710" class="dlcls-1" d="M41.708 17.336l-5.439-2.8A118.58 118.58 0 0024.2 25.048a115.483 115.483 0 00-9.4 10.609l3.021 5.276a109.7 109.7 0 0110.354-11.9 113.063 113.063 0 0113.6-11.6z" transform="translate(12.948 12.718)"/><path id="dl패스_12711" data-name="패스 12711" class="dlcls-1" d="M76.1 35.747A112.375 112.375 0 0186 46.654h.006l2.557-5.738A118.266 118.266 0 0080 31.7C55.122 7.7 25.242-1.072 11.963 11.719c-3.992 3.844-6.1 9.379-6.1 16 0 14.816 10.273 33.938 26.816 49.9a113.748 113.748 0 0012.135 10.2l5.381-2.974.032-.047a108.672 108.672 0 01-13.641-11.223c-15.251-14.715-25.1-32.713-25.1-45.853 0-5.132 1.474-9.154 4.38-11.953C26.579 5.436 54.164 14.592 76.1 35.747" transform="translate(5.128 5.12)"/><path id="dl패스_12712" data-name="패스 12712" class="dlcls-1" d="M73.765 36.769l-3.849 6.019c3.2 10.346 2.321 19.147-2.542 24.009-4.952 4.956-13.9 5.692-24.932 2.188L36.115 72.7c6.945 2.756 13.3 4.127 18.866 4.127 6.756 0 12.341-2.025 16.369-6.052 7.213-7.213 8.094-19.607 2.415-34.007" transform="translate(31.601 32.173)"/></g></g></g></svg><svg id="icon_thumb_specialty_m" width="68" height="68" viewBox="-4 -4 68 68" x="492" y="704.05" xmlns="http://www.w3.org/2000/svg"><defs><clipPath id="dmclip-path"><path id="dm사각형_480" data-name="사각형 480" class="dmcls-1" d="M0 0h60v60H0z"/></clipPath><style>.dmcls-1{fill:#d1d1d1}.dmcls-2{clip-path:url(#dmclip-path)}</style></defs><g id="dm그룹_358" data-name="그룹 358" class="dmcls-2"><g id="dm그룹_357" data-name="그룹 357"><g id="dm그룹_356" data-name="그룹 356" class="dmcls-2"><path id="dm패스_12708" data-name="패스 12708" class="dmcls-1" d="M11.212 36.833l-.034-.015-.043.2.077-.187" transform="translate(-.696 -2.301)"/><path id="dm패스_12709" data-name="패스 12709" class="dmcls-1" d="M51.922 8.81c-3.6-3.6-9.808-3.957-17.025-.982l3.131 1.845C43.171 8.015 47.53 8.4 49.934 10.8c5.163 5.162.563 18.484-10.042 29.09C34.556 45.227 28.5 49.174 22.836 51 17.5 52.729 13.22 52.349 10.8 49.931c-2.6-2.6-2.8-7.389-.613-13.292l-1.845-2.845-.042-.017c-3.389 7.818-3.2 14.431.51 18.142a10.946 10.946 0 008.011 2.958 22.571 22.571 0 006.875-1.2c6.079-1.964 12.536-6.156 18.181-11.8C53.968 29.791 58.378 15.266 51.922 8.81" transform="translate(-.368 -.364)"/><path id="dm패스_12710" data-name="패스 12710" class="dmcls-1" d="M28.253 15.936l-2.72-1.4a59.29 59.29 0 00-6.033 5.256 57.742 57.742 0 00-4.7 5.3l1.51 2.638a54.849 54.849 0 015.177-5.951 56.532 56.532 0 016.8-5.8z" transform="translate(-.925 -.908)"/><path id="dm패스_12711" data-name="패스 12711" class="dmcls-1" d="M40.978 20.8a56.188 56.188 0 014.952 5.453l1.279-2.869a59.133 59.133 0 00-4.282-4.608C30.491 6.777 15.551 2.39 8.912 8.785a10.777 10.777 0 00-3.052 8c0 7.408 5.137 16.969 13.408 24.949a56.873 56.873 0 006.067 5.1l2.691-1.487.016-.023a54.336 54.336 0 01-6.819-5.609C13.6 32.356 8.671 23.357 8.672 16.787a7.949 7.949 0 012.19-5.977c5.357-5.167 19.149-.589 30.115 9.989" transform="translate(-.366 -.366)"/><path id="dm패스_12712" data-name="패스 12712" class="dmcls-1" d="M54.94 36.769l-1.925 3.009c1.6 5.173 1.161 9.574-1.271 12-2.476 2.478-6.951 2.846-12.466 1.094l-3.163 1.858a26.006 26.006 0 009.433 2.07 11.164 11.164 0 008.184-3.026c3.607-3.607 4.047-9.8 1.208-17" transform="translate(-2.257 -2.298)"/></g></g></g></svg><svg id="icon_title_arrow_disable" width="64" height="64" viewBox="-4 -4 64 64" x="800" xmlns="http://www.w3.org/2000/svg"><path id="dn사각형_411" data-name="사각형 411" d="M0 0h56v56H0z" opacity=".001" fill="#d1d1d1"/><path id="dn패스_12660" data-name="패스 12660" d="M34.924 14l8.96 11.5H5.5L.776 30.224v.276h53.341L41.263 14z" fill="#d1d1d1"/></svg><svg id="icon_title_arrow_disable_m" width="50" height="32" viewBox="-4 -4 50 32" x="800" y="202" xmlns="http://www.w3.org/2000/svg"><path id="do사각형_20968" data-name="사각형 20968" d="M42 0H0v24h42z" fill="none"/><path id="do패스_249125" data-name="패스 249125" d="M2.5 9.622h29.6L23.262 0h3.393l11.139 12.122H0z" transform="translate(2 3)" fill="#d1d1d1"/></svg><svg id="icon_title_arrow_m" width="50" height="32" viewBox="-4 -4 50 32" x="800" y="170" xmlns="http://www.w3.org/2000/svg"><path id="dp사각형_20968" data-name="사각형 20968" d="M42 0H0v24h42z" fill="none"/><path id="dp패스_249125" data-name="패스 249125" d="M2.5 9.622h29.6L23.262 0h3.393l11.139 12.122H0z" transform="translate(2 3)" fill="#121212"/></svg><svg width="128" height="128" viewBox="-4 -4 128 128" id="icon_world" x="256" y="376" xmlns="http://www.w3.org/2000/svg"><g data-name="그룹 410"><path data-name="패스 12759" d="M76.408 91.232V76.814L88.43 64.789h14.356l12.022 12.025V91.24l-19.07 21.539zm10.033-31.243L71.608 74.826v18.243L95.761 120l23.847-26.94V74.826l-14.832-14.837z"/><path data-name="사각형 527" d="M91.418 80.283h9v9h-9z"/><path data-name="패스 12760" d="M20.051 101.683h-4.8V81.7L34.93 69.161V56.992l-11.9.072V25.84h4.8v26.395l11.9-.072v19.631L20.051 84.335z"/><path data-name="패스 12761" d="M66.312 38.35H44.187V19.125h4.8V33.55h15.337l10.66-10.661 3.394 3.394z"/><path data-name="패스 12762" d="M32.745 14.4L.392 47.146V87.2L32.8 120h39.585l15.636-15.824-11.613-12.945V76.813l12.023-12.024h16.361v-4.8h-18.35L71.609 74.826v18.242l9.822 10.949L70.38 115.2H34.8L5.191 85.233V49.117L34.751 19.2h35.682l27.6 27.934h6.748L72.439 14.4z"/></g></svg><svg width="108" height="108" viewBox="-4 -4 108 108" id="icon_world_m" x="692" xmlns="http://www.w3.org/2000/svg"><g data-name="그룹 410"><path data-name="패스 12759" d="M63.673 76.027V64.012l10.018-10.021h11.964l10.018 10.021v12.022L79.781 93.983zm8.361-26.036L59.673 62.355v15.2l20.128 22.438 19.872-22.446V62.355l-12.36-12.364z"/><path data-name="사각형 527" d="M76.181 66.903h7.5v7.5h-7.5z"/><path data-name="패스 12760" d="M16.709 84.737h-4V68.086l16.4-10.451V47.494l-9.918.06v-26.02h4v22l9.918-.06v16.355l-16.4 10.451z"/><path data-name="패스 12761" d="M55.259 31.959H36.822V15.938h4v12.021h12.781l8.883-8.884 2.828 2.828z"/><path data-name="패스 12762" d="M27.287 12L.326 39.289V72.67l27 27.33h32.99l13.03-13.187-9.674-10.787V64.011l10.019-10.02h13.635v-4H72.034L59.673 62.355v15.2l8.185 9.124L58.649 96H29.001L4.325 71.028v-30.1L28.958 16h29.735l23 23.278h5.623L60.365 12z"/></g></svg></svg>