<svg id="Layer_1" data-name="Layer 1" xmlns="http://www.w3.org/2000/svg" viewBox="0 0 1044.68 85.72"><defs><style>.cls-1{fill:#fff;}</style></defs><path class="cls-1" d="M0,16.07H35A23.71,23.71,0,0,0,32.34,27V82.54H47V26.39A10.32,10.32,0,0,1,57.34,16.07h22V3.17H0Z"/><path class="cls-1" d="M249.61,2.58H225.8A27.38,27.38,0,0,0,198.42,30V82.54h14V55.44H263v27.1h14V30A27.38,27.38,0,0,0,249.61,2.58ZM263,42.86H212.43V29.57a14.29,14.29,0,0,1,14.29-14.29h22A14.29,14.29,0,0,1,263,29.57Z"/><path class="cls-1" d="M696.08,25.94A22.78,22.78,0,0,0,673.31,3.17h-56.6V82.54h56.6a22.76,22.76,0,0,0,15.24-39.68A22.72,22.72,0,0,0,696.08,25.94Zm-24.5,44.7H630.24V48.71h41.34a11,11,0,1,1,0,21.93Zm0-33.63H630.24V15.08h41.34a11,11,0,1,1,0,21.93Z"/><rect class="cls-1" x="715.13" y="3.17" width="14.56" height="79.37"/><rect class="cls-1" x="838.83" y="3.17" width="14.56" height="79.37"/><path class="cls-1" d="M764,65.88V3.18H749.15v62.7a16.66,16.66,0,0,0,16.66,16.66H823V69.25H767.4A3.37,3.37,0,0,1,764,65.88Z"/><polygon class="cls-1" points="870.46 16.07 902.86 16.07 902.86 82.55 917.44 82.55 917.44 16.07 949.83 16.07 949.83 3.17 870.46 3.17 870.46 16.07"/><path class="cls-1" d="M1030.49,3.17V43.26H982.08a3.37,3.37,0,0,1-3.38-3.37V3.18H964.12V39.89a16.67,16.67,0,0,0,16.67,16.67h49.7v26h14.19V3.17Z"/><path class="cls-1" d="M347.7,3.17H296.45V82.54h13.93V55.44H347.7a26.14,26.14,0,1,0,0-52.27Zm-1.23,39.77H310.38V15.68h36.09a13.63,13.63,0,1,1,0,27.26Z"/><path class="cls-1" d="M154.42,2a25.63,25.63,0,0,0-18.7,8.07A25.74,25.74,0,0,0,91.27,27.73V82.54h14.09V26.66a11.66,11.66,0,1,1,23.31,0V82.54h14.09V26.66a11.66,11.66,0,0,1,23.32,0V82.54h14.08V27.73A25.74,25.74,0,0,0,154.42,2Z"/><path class="cls-1" d="M476.67,2A25.63,25.63,0,0,0,458,10.05a25.74,25.74,0,0,0-44.45,17.68V82.54h14.09V26.66a11.66,11.66,0,0,1,23.32,0V82.54H465V26.66a11.66,11.66,0,1,1,23.32,0V82.54h14.09V27.73A25.75,25.75,0,0,0,476.67,2Z"/><path class="cls-1" d="M559.17,0A42.86,42.86,0,1,0,602,42.86,42.85,42.85,0,0,0,559.17,0Zm0,72.62c-16.72,0-28.58-13.32-28.58-29.76S542.45,13.1,559.17,13.1s28.57,13.32,28.57,29.76S575.88,72.62,559.17,72.62Z"/></svg>